<?xml version="1.0" encoding="utf-8"?>
<!DOCTYPE svg PUBLIC "-//W3C//DTD SVG 20010904//EN" "http://www.w3.org/TR/2001/REC-SVG-20010904/DTD/svg10.dtd">
<svg version="1.0" xmlns="http://www.w3.org/2000/svg" width="593pt" height="421pt" viewBox="0 0 593 421" style="" preserveAspectRatio="xMidYMid meet">
<g fill="#00D800FF" stroke="#00D800FF">
<path d="M 582.514 4.662 C 579.222 6.578 576.297 8.472 576.014 8.871 C 575.731 9.270 573.250 10.895 570.500 12.483 C 567.750 14.070 564.905 15.961 564.179 16.685 C 563.452 17.408 562.471 18.000 562.000 18.000 C 561.529 18.000 560.548 18.590 559.821 19.310 C 557.741 21.374 536.233 35.000 535.057 35.000 C 534.476 35.000 534.000 35.398 534.000 35.883 C 534.000 36.369 533.213 37.040 532.250 37.374 C 531.288 37.708 528.475 39.131 526.000 40.537 L 521.500 43.093 521.467 39.596 C 521.449 37.674 521.110 35.777 520.715 35.382 C 519.843 34.510 516.291 36.327 512.496 39.588 C 510.952 40.914 509.421 42.001 509.094 42.001 C 508.768 42.002 507.300 43.014 505.834 44.251 C 499.877 49.276 499.072 49.891 497.001 50.999 C 493.671 52.782 492.152 51.555 491.810 46.804 C 491.523 42.814 491.277 42.478 488.438 42.201 C 485.098 41.874 477.964 46.112 466.000 55.529 C 458.651 61.313 447.225 68.242 445.812 67.771 C 444.203 67.234 452.145 59.588 466.867 47.500 C 468.207 46.400 470.426 44.488 471.798 43.250 C 473.170 42.013 474.703 41.000 475.205 41.000 C 475.707 41.000 475.878 40.611 475.584 40.136 C 475.290 39.661 477.739 37.116 481.025 34.480 C 484.311 31.844 487.000 29.386 487.000 29.018 C 487.000 28.650 485.894 27.310 484.542 26.040 C 480.888 22.606 474.994 23.650 462.384 29.964 C 456.695 32.813 451.582 34.860 451.020 34.513 C 450.459 34.166 450.000 32.810 450.000 31.500 C 450.000 28.965 448.203 27.157 447.138 28.622 C 446.787 29.105 444.250 31.285 441.500 33.466 C 438.750 35.647 436.275 37.675 436.000 37.972 C 435.725 38.269 433.700 39.835 431.500 41.453 C 429.300 43.071 427.275 44.658 427.000 44.981 C 426.725 45.304 424.250 47.351 421.500 49.530 C 418.750 51.709 415.825 54.185 415.000 55.031 C 414.175 55.878 411.280 58.355 408.566 60.535 C 405.853 62.716 402.689 65.400 401.536 66.500 C 400.382 67.600 396.603 70.975 393.136 74.000 C 383.359 82.532 382.001 83.735 374.131 90.844 C 363.607 100.349 307.921 155.990 299.000 165.913 C 286.979 179.285 286.715 179.582 282.000 185.047 C 279.525 187.915 276.006 191.890 274.181 193.881 C 272.355 195.871 269.880 198.762 268.681 200.305 C 267.481 201.848 265.468 204.323 264.207 205.805 C 262.946 207.287 260.921 209.762 259.707 211.305 C 258.493 212.848 256.468 215.323 255.207 216.805 C 253.946 218.287 251.921 220.763 250.707 222.306 C 248.013 225.730 245.557 228.697 242.679 232.003 C 241.481 233.380 238.250 237.185 235.500 240.458 C 232.750 243.731 229.825 247.139 229.000 248.032 C 228.175 248.925 225.700 251.803 223.500 254.427 C 221.300 257.051 217.700 261.242 215.500 263.740 C 213.300 266.238 210.717 269.231 209.761 270.391 C 206.350 274.527 195.349 287.407 187.500 296.453 C 184.750 299.623 181.825 303.100 181.000 304.180 C 180.175 305.260 177.861 308.023 175.859 310.322 C 173.856 312.620 171.367 315.553 170.326 316.840 L 168.435 319.181 159.468 310.039 C 145.468 295.767 141.868 291.859 136.500 285.108 C 123.720 269.034 119.038 263.255 115.000 258.577 C 110.279 253.107 110.177 253.007 104.725 248.588 C 102.098 246.459 99.754 244.912 99.516 245.151 C 99.278 245.389 101.512 248.265 104.482 251.542 C 107.452 254.819 109.304 257.384 108.599 257.243 C 107.124 256.946 97.360 246.780 91.534 239.474 C 89.353 236.738 87.325 234.275 87.028 234.000 C 86.731 233.725 85.157 231.700 83.531 229.500 C 81.904 227.300 80.106 225.017 79.536 224.427 C 78.219 223.063 70.769 214.163 69.674 212.645 C 69.063 211.799 68.715 211.826 68.341 212.750 C 67.779 214.133 65.143 214.392 63.332 213.242 C 61.990 212.389 68.954 220.670 77.000 229.492 C 82.497 235.520 88.787 242.964 91.440 246.581 C 92.659 248.244 92.639 248.731 91.288 250.228 C 89.829 251.846 89.511 251.719 86.294 248.228 C 84.405 246.178 81.653 242.975 80.180 241.111 C 78.706 239.247 77.050 237.222 76.500 236.610 C 75.950 235.998 73.701 233.248 71.502 230.499 C 57.771 213.333 56.864 212.536 54.162 215.238 C 53.480 215.920 52.307 216.482 51.553 216.488 C 50.799 216.495 52.603 219.200 55.561 222.500 L 60.939 228.500 58.720 230.228 C 55.450 232.773 54.482 232.457 50.338 227.500 C 47.280 223.842 45.961 223.000 43.288 223.000 C 38.093 223.000 39.044 225.522 47.863 235.128 C 52.407 240.078 52.034 240.769 47.298 236.173 C 45.198 234.135 41.684 231.125 39.490 229.484 C 37.297 227.843 34.656 225.738 33.623 224.807 C 31.051 222.488 21.390 218.000 18.973 218.000 C 17.888 218.000 17.000 218.450 17.000 219.000 C 17.000 219.550 17.439 220.000 17.977 220.000 C 18.777 220.000 23.000 227.381 23.000 228.781 C 23.000 229.004 20.863 227.421 18.250 225.264 C 13.358 221.225 2.078 214.000 0.663 214.000 C -1.313 214.000 4.843 224.592 10.000 230.066 C 10.825 230.941 13.975 234.737 17.000 238.500 C 20.025 242.263 23.175 246.058 24.000 246.931 C 24.825 247.805 30.670 254.816 36.989 262.510 C 43.309 270.205 49.384 277.467 50.489 278.649 C 51.595 279.831 53.480 282.081 54.677 283.649 C 55.875 285.217 57.681 287.400 58.692 288.500 C 59.703 289.600 62.323 292.728 64.515 295.451 C 66.707 298.174 69.691 301.774 71.148 303.451 C 82.805 316.876 90.219 325.575 94.625 331.000 C 96.189 332.925 97.716 334.725 98.018 335.000 C 98.321 335.275 99.453 336.655 100.534 338.067 C 102.724 340.926 111.339 350.989 117.561 357.954 C 119.794 360.454 122.494 363.655 123.561 365.067 C 124.627 366.479 127.833 370.304 130.684 373.567 C 137.005 380.802 138.402 382.435 143.500 388.554 C 145.700 391.194 147.950 393.837 148.500 394.427 C 149.050 395.017 151.975 398.417 155.000 401.983 C 162.834 411.217 165.127 413.855 168.319 417.309 L 171.138 420.359 173.565 417.430 C 174.900 415.818 176.998 412.925 178.227 411.000 C 180.327 407.710 181.197 406.563 185.062 401.979 C 185.922 400.960 187.497 398.927 188.562 397.462 C 195.555 387.844 220.844 355.219 223.480 352.415 C 224.041 351.818 225.400 350.095 226.500 348.586 C 228.306 346.108 229.595 344.525 235.665 337.322 C 236.674 336.125 238.850 333.468 240.500 331.419 C 242.150 329.370 244.400 326.742 245.500 325.581 C 246.600 324.419 249.285 321.226 251.466 318.484 C 253.647 315.743 255.672 313.275 255.966 313.000 C 256.260 312.725 258.975 309.575 262.000 306.001 C 268.020 298.886 271.183 295.220 275.000 290.933 C 276.375 289.389 279.300 285.974 281.500 283.345 C 283.700 280.717 286.625 277.420 288.000 276.020 C 289.375 274.619 293.200 270.330 296.500 266.487 C 299.800 262.644 303.206 258.825 304.069 258.000 C 304.932 257.175 308.045 253.800 310.988 250.500 C 318.224 242.383 339.888 219.228 348.500 210.404 C 368.889 189.513 377.211 181.155 391.219 167.500 C 399.682 159.250 411.252 148.225 416.929 143.000 C 422.606 137.775 428.928 131.925 430.978 130.000 C 433.028 128.075 437.070 124.475 439.962 122.000 C 442.854 119.525 446.189 116.600 447.374 115.500 C 448.559 114.400 451.322 111.974 453.514 110.110 C 464.410 100.842 468.486 97.322 470.529 95.414 C 471.757 94.267 474.953 91.567 477.631 89.414 C 480.309 87.262 482.725 85.251 483.000 84.947 C 483.275 84.643 485.300 83.071 487.500 81.453 C 489.700 79.835 491.725 78.260 492.000 77.953 C 492.859 76.994 511.039 62.850 521.503 55.000 C 527.001 50.875 531.725 47.269 532.000 46.986 C 532.275 46.704 535.200 44.679 538.500 42.486 C 541.800 40.294 544.725 38.235 545.000 37.912 C 545.275 37.588 547.975 35.671 551.000 33.651 C 554.025 31.632 557.385 29.305 558.466 28.480 C 559.547 27.655 566.007 23.497 572.822 19.240 C 579.636 14.983 587.075 9.830 589.351 7.790 C 593.382 4.177 593.438 4.040 591.495 2.572 C 588.996 0.682 589.592 0.544 582.514 4.662 "/></g>
</svg>
