<?xml version="1.0" encoding="UTF-8"?> <svg xmlns="http://www.w3.org/2000/svg" height="480pt" viewBox="0 0 480 480" width="480pt"> <path d="m419.535156 64.800781c-11.058594-6.300781-23.054687-10.792969-35.535156-13.304687v-11.496094c-.027344-22.078125-17.921875-39.9726562-40-40h-88c-22.078125.0273438-39.972656 17.921875-40 40v160h-8v-192c0-4.417969-3.582031-8-8-8h-64c-4.417969 0-8 3.582031-8 8v192h-16c-8.070312.019531-16.117188.90625-24 2.65625v-18.65625c0-4.417969-3.582031-8-8-8h-48c-4.417969 0-8 3.582031-8 8v58.945312c-15.542969 19.660157-23.99609375 43.992188-24 69.054688v160c0 4.417969 3.582031 8 8 8h304c4.417969 0 8-3.582031 8-8v-64.207031l18.398438 11.816406c13.1875 8.445313 30.082031 8.445313 43.265624 0l50.335938-32.410156v84.800781c0 4.417969 3.582031 8 8 8h32c4.417969 0 8-3.582031 8-8v-303c-.050781-43.050781-23.109375-82.792969-60.464844-104.199219zm-275.535156-48.800781h48v184h-48zm-104 176h32v15.511719c-11.640625 4.449219-22.457031 10.8125-32 18.824219zm200 272h-224v-112h224zm0-128h-224v-16h224zm0-32h-223.664062c4.21875-49.714844 45.769531-87.9375 95.664062-88h112c5.367188.078125 10.722656.613281 16 1.601562zm8-264v86.183594c-5.265625 13.664062-7.976562 28.175781-8 42.816406v32.351562c-2.6875-.398437-5.34375-.664062-8-.863281v-160.488281c0-13.253906 10.746094-24 24-24h88c13.253906 0 24 10.746094 24 24v9.34375c-5.328125-.359375-10.671875-.359375-16 0v-9.34375c0-4.417969-3.582031-8-8-8h-88c-4.417969 0-8 3.582031-8 8zm88 8v3.496094c-28.8125 5.777344-54.464844 22.023437-72 45.601562v-49.097656zm-64 416h-16v-97.34375l16 10.28125zm32 0h-16v-76.800781l16 10.289062zm160 0h-16v-87.0625l16-10.28125zm0-116.367188-91.015625 58.511719c-7.914063 5.070313-18.054687 5.070313-25.96875 0l-91.015625-58.511719v-178.632812c0-57.4375 46.5625-104 104-104s104 46.5625 104 104zm0 0"></path> <path d="m48 288h16c.027344-22.078125 17.921875-39.972656 40-40v-16c-30.914062.035156-55.964844 25.085938-56 56zm0 0"></path> <path d="m48 368h16v80h-16zm0 0"></path> <path d="m447.65625 236.191406c-1.640625-10.179687-9.621094-18.160156-19.800781-19.800781-7.21875-20.714844-23.515625-36.992187-44.238281-44.183594-2.101563-13.03125-14.367188-21.898437-27.402344-19.800781-10.179688 1.640625-18.160156 9.621094-19.800782 19.800781-20.722656 7.191407-37.019531 23.46875-44.238281 44.183594-13.035156 2.101563-21.898437 14.367187-19.800781 27.402344 1.640625 10.179687 9.621094 18.160156 19.800781 19.800781 7.21875 20.714844 23.515625 36.992188 44.238281 44.183594 2.101563 13.03125 14.367188 21.898437 27.402344 19.796875 10.179688-1.636719 18.160156-9.617188 19.800782-19.796875 20.722656-7.191406 37.019531-23.46875 44.238281-44.183594 13.035156-2.101562 21.898437-14.367188 19.800781-27.402344zm-111.65625 54.207032c-11.59375-5.496094-20.9375-14.820313-26.464844-26.398438h26.464844zm0-42.398438h-40c-4.417969 0-8-3.582031-8-8s3.582031-8 8-8h40zm0-32h-26.464844c5.527344-11.578125 14.871094-20.902344 26.464844-26.398438zm32 88c0 4.417969-3.582031 8-8 8s-8-3.582031-8-8v-40h16zm0-56h-16v-16h16zm0-32h-16v-40c0-4.417969 3.582031-8 8-8s8 3.582031 8 8zm16-26.398438c11.59375 5.496094 20.9375 14.820313 26.464844 26.398438h-26.464844zm0 100.796876v-26.398438h26.464844c-5.527344 11.578125-14.871094 20.902344-26.464844 26.398438zm40-42.398438h-40v-16h40c4.417969 0 8 3.582031 8 8s-3.582031 8-8 8zm0 0"></path> <path d="m200 240c-13.253906 0-24 10.746094-24 24s10.746094 24 24 24 24-10.746094 24-24-10.746094-24-24-24zm0 32c-4.417969 0-8-3.582031-8-8s3.582031-8 8-8 8 3.582031 8 8-3.582031 8-8 8zm0 0"></path> </svg> 