<?xml version="1.0" encoding="utf-8"?>
<!DOCTYPE svg PUBLIC "-//W3C//DTD SVG 20010904//EN" "http://www.w3.org/TR/2001/REC-SVG-20010904/DTD/svg10.dtd">
<svg version="1.0" xmlns="http://www.w3.org/2000/svg" width="900pt" height="780pt" viewBox="0 0 900 780" style="" preserveAspectRatio="xMidYMid meet">
<g fill="#000000FF" stroke="#000000FF">
<path d="M 408.449 156.143 C 388.677 173.272 361.925 196.413 349.000 207.567 C 336.075 218.722 321.450 231.355 316.500 235.642 C 311.550 239.928 294.225 254.908 278.000 268.931 C 261.775 282.954 241.257 300.744 232.406 308.464 C 223.554 316.184 208.962 328.800 199.979 336.500 C 190.996 344.200 175.288 357.761 165.073 366.635 C 154.858 375.509 141.325 387.237 135.000 392.697 L 123.500 402.625 123.247 587.313 L 122.995 772.000 244.019 772.000 L 365.044 772.000 364.976 673.999 C 364.908 576.543 364.919 575.972 367.007 571.249 C 369.551 565.495 373.164 561.538 378.500 558.658 C 382.466 556.519 382.995 556.500 440.000 556.500 L 497.500 556.500 503.500 559.307 C 510.761 562.703 514.642 566.181 517.104 571.500 C 518.866 575.306 518.957 580.238 518.978 673.250 L 519.000 771.000 640.000 771.000 L 761.000 771.000 761.000 587.086 L 761.000 403.172 724.317 370.836 C 704.142 353.051 683.277 334.675 677.951 330.000 C 672.625 325.325 661.143 315.200 652.436 307.500 C 643.728 299.800 632.513 289.900 627.512 285.500 C 622.511 281.100 611.058 270.975 602.061 263.000 C 593.064 255.025 583.841 246.925 581.565 245.000 C 577.866 241.870 565.844 231.272 500.465 173.500 C 484.458 159.355 458.991 136.895 449.000 128.109 C 447.075 126.417 445.252 125.025 444.949 125.016 C 444.646 125.007 428.221 139.014 408.449 156.143 M 428.000 371.000 L 428.000 403.000 396.500 403.000 L 365.000 403.000 365.000 371.667 C 365.000 354.433 365.300 340.033 365.667 339.667 C 366.033 339.300 380.208 339.000 397.167 339.000 L 428.000 339.000 428.000 371.000 M 427.764 279.750 L 427.500 311.500 396.500 311.500 L 365.500 311.500 365.235 281.010 C 365.089 264.241 365.188 249.954 365.454 249.260 C 365.828 248.284 372.933 248.000 396.983 248.000 L 428.028 248.000 427.764 279.750 M 519.000 371.000 L 519.000 403.000 488.000 403.000 L 457.000 403.000 457.000 371.667 C 457.000 354.433 457.300 340.033 457.667 339.667 C 458.033 339.300 471.983 339.000 488.667 339.000 L 519.000 339.000 519.000 371.000 M 519.000 280.014 L 519.000 312.029 488.250 311.764 L 457.500 311.500 457.235 281.010 C 457.089 264.241 457.188 249.954 457.454 249.260 C 457.828 248.285 464.832 248.000 488.469 248.000 L 519.000 248.000 519.000 280.014 "/></g>
<g fill="#000000FF" stroke="#000000FF">
<path d="M 417.341 28.696 C 400.929 43.379 382.753 59.692 376.951 64.946 C 371.149 70.201 364.849 75.862 362.951 77.526 C 361.053 79.190 344.200 94.254 325.500 111.000 C 306.800 127.746 290.150 142.631 288.500 144.077 C 286.850 145.523 276.050 155.222 264.500 165.631 C 252.950 176.039 232.925 193.990 220.000 205.521 C 207.075 217.053 189.739 232.566 181.476 239.994 C 173.213 247.422 155.898 262.950 142.997 274.500 C 130.096 286.050 112.530 301.800 103.961 309.500 C 95.391 317.200 84.826 326.650 80.481 330.500 C 76.137 334.350 65.087 344.250 55.927 352.500 C 46.767 360.750 30.958 374.925 20.797 384.000 L 2.322 400.500 46.079 400.760 C 80.519 400.965 90.120 400.749 91.168 399.743 C 91.901 399.040 105.081 387.448 120.457 373.982 C 135.834 360.517 154.037 344.550 160.908 338.500 C 167.780 332.450 177.282 324.125 182.023 320.000 C 186.765 315.875 206.587 298.513 226.072 281.417 C 245.557 264.321 280.400 233.755 303.500 213.493 C 326.600 193.230 366.809 157.942 392.854 135.076 C 418.898 112.209 441.306 92.661 442.648 91.635 C 444.801 89.989 445.288 89.941 446.794 91.225 C 449.102 93.195 482.558 122.949 509.428 146.930 C 521.488 157.693 540.187 174.375 550.981 184.000 C 561.775 193.625 584.532 213.931 601.553 229.124 C 618.574 244.317 652.300 274.405 676.500 295.986 C 718.856 333.758 745.985 357.983 778.703 387.250 L 794.075 401.000 846.055 401.000 L 898.036 401.000 888.768 392.646 C 883.671 388.051 874.933 380.289 869.351 375.396 C 857.714 365.196 777.784 294.232 761.901 280.000 C 742.917 262.989 727.688 249.439 717.940 240.887 C 712.682 236.274 704.338 228.900 699.398 224.500 C 694.458 220.100 682.813 209.750 673.520 201.500 C 664.226 193.250 650.520 181.069 643.061 174.431 C 635.603 167.793 597.100 133.616 557.500 98.481 C 517.900 63.346 477.249 27.265 467.164 18.300 C 457.080 9.335 448.459 2.000 448.006 2.000 C 447.553 2.000 433.754 14.013 417.341 28.696 "/></g>
<g fill="#000000FF" stroke="#000000FF">
<path d="M 672.677 33.656 C 672.305 34.029 672.013 58.221 672.029 87.417 L 672.058 140.500 690.779 156.060 C 701.076 164.618 718.446 179.018 729.380 188.060 C 740.314 197.102 751.789 206.627 754.880 209.226 L 760.500 213.952 760.500 123.726 L 760.500 33.500 716.927 33.240 C 692.962 33.096 673.049 33.284 672.677 33.656 "/></g>
</svg>
