<?xml version="1.0" encoding="utf-8"?>
<!DOCTYPE svg PUBLIC "-//W3C//DTD SVG 20010904//EN" "http://www.w3.org/TR/2001/REC-SVG-20010904/DTD/svg10.dtd">
<svg version="1.0" xmlns="http://www.w3.org/2000/svg" width="900pt" height="833pt" viewBox="0 0 900 833" style="" preserveAspectRatio="xMidYMid meet">
<g fill="#000000FF" stroke="#000000FF">
<path d="M 319.281 423.791 L 189.061 512.500 189.030 652.000 L 188.999 791.500 224.000 791.225 L 259.000 790.950 259.000 676.975 L 259.000 563.000 322.000 563.000 L 385.000 563.000 385.000 677.250 L 385.000 791.500 546.000 791.500 L 707.000 791.500 707.000 654.933 L 707.000 518.365 579.551 426.933 C 509.454 376.645 451.516 335.406 450.801 335.291 C 450.085 335.176 390.901 375.001 319.281 423.791 M 640.000 622.500 L 640.000 682.000 570.500 682.000 L 501.000 682.000 501.000 622.500 L 501.000 563.000 570.500 563.000 L 640.000 563.000 640.000 622.500 "/></g>
<g fill="#000000FF" stroke="#000000FF">
<path d="M 274.677 355.953 C 179.624 422.939 101.400 478.200 100.845 478.755 C 100.166 479.434 103.352 485.041 110.576 495.882 C 116.483 504.747 121.657 512.000 122.074 512.000 C 122.491 512.000 192.957 464.454 278.666 406.342 C 364.375 348.230 438.170 298.241 442.656 295.255 L 450.811 289.826 611.869 400.913 C 700.451 462.011 773.299 512.000 773.753 512.000 C 774.207 512.000 780.636 505.889 788.040 498.421 C 800.927 485.420 801.415 484.779 799.500 483.366 C 798.400 482.554 769.481 462.035 735.236 437.769 L 672.972 393.648 673.236 327.824 L 673.500 262.000 640.250 262.000 L 607.000 262.000 607.000 304.449 L 607.000 346.899 529.250 291.827 C 486.488 261.537 450.790 236.135 449.921 235.377 C 449.053 234.620 448.153 234.036 447.921 234.080 C 447.690 234.123 369.730 288.966 274.677 355.953 "/></g>
</svg>
