<?xml version="1.0" encoding="utf-8"?>
<!DOCTYPE svg PUBLIC "-//W3C//DTD SVG 20010904//EN" "http://www.w3.org/TR/2001/REC-SVG-20010904/DTD/svg10.dtd">
<svg version="1.0" xmlns="http://www.w3.org/2000/svg" width="714pt" height="714pt" viewBox="0 0 714 714" style="" preserveAspectRatio="xMidYMid meet">
<g fill="#000000FF" stroke="#000000FF">
<path d="M 239.000 37.053 C 160.142 43.976 96.970 84.889 66.921 148.500 C 56.590 170.370 50.280 195.365 49.376 218.000 C 48.736 234.027 49.534 236.270 57.996 242.233 C 66.895 248.504 73.010 250.385 84.500 250.385 C 95.630 250.385 101.720 248.608 110.484 242.803 C 117.575 238.106 122.509 238.321 131.500 243.719 C 140.674 249.226 149.228 251.406 159.000 250.726 C 167.457 250.139 172.823 248.312 181.425 243.094 C 189.621 238.122 193.454 238.234 202.526 243.710 C 215.675 251.647 230.484 253.074 243.750 247.681 L 250.000 245.140 250.000 351.316 L 250.000 457.491 206.085 413.585 L 162.170 369.679 156.492 369.208 L 150.815 368.737 129.407 390.144 C 108.210 411.342 108.000 411.594 108.000 415.826 C 108.000 418.176 108.646 421.314 109.436 422.800 C 110.225 424.285 143.413 458.012 183.187 497.748 C 239.660 554.170 256.267 570.216 258.994 570.998 C 264.403 572.549 666.459 572.252 670.906 570.694 C 672.780 570.037 675.255 568.230 676.406 566.679 C 678.393 564.002 678.514 562.470 678.773 536.679 C 679.080 506.035 678.717 504.107 672.000 500.752 C 668.705 499.106 657.456 499.003 479.978 499.002 L 291.456 499.000 283.228 490.729 L 275.000 482.458 275.000 363.622 C 275.000 250.832 275.089 244.823 276.750 245.521 C 288.109 250.291 288.580 250.396 298.500 250.373 C 309.758 250.347 313.925 249.155 323.500 243.224 C 331.691 238.149 336.309 238.149 344.500 243.224 C 352.076 247.917 357.843 249.949 365.700 250.693 C 376.229 251.690 388.367 248.225 397.186 241.705 C 402.021 238.130 408.277 238.782 416.500 243.719 C 420.350 246.030 426.425 248.670 430.000 249.584 C 447.294 254.010 468.551 246.463 474.908 233.642 C 477.281 228.856 477.299 228.609 476.136 216.730 C 473.190 186.624 463.921 159.107 448.394 134.376 C 416.133 82.990 359.718 47.526 295.893 38.508 C 281.971 36.541 253.210 35.806 239.000 37.053 M 283.500 62.006 C 347.868 69.081 402.349 103.258 431.410 154.794 C 442.291 174.091 448.686 194.161 451.440 217.659 L 452.045 222.818 447.534 224.540 C 441.256 226.938 435.564 226.084 428.372 221.666 C 419.923 216.476 414.571 214.825 406.000 214.763 C 396.386 214.694 391.165 216.154 382.526 221.325 C 376.393 224.997 374.823 225.500 369.500 225.500 C 364.192 225.500 362.590 224.990 356.474 221.355 C 347.171 215.825 343.008 214.622 333.500 214.719 C 324.389 214.812 319.536 216.303 310.640 221.744 C 305.319 224.999 303.690 225.500 298.425 225.500 C 293.189 225.500 291.531 224.997 286.425 221.860 C 277.765 216.541 271.778 214.771 262.500 214.786 C 253.373 214.802 248.320 216.327 239.551 221.714 C 235.289 224.332 232.123 225.491 228.390 225.801 C 223.634 226.195 222.360 225.790 213.819 221.172 C 202.722 215.173 194.897 213.483 185.335 215.023 C 178.324 216.153 176.130 217.018 166.691 222.374 C 160.640 225.808 159.299 226.190 154.640 225.803 C 150.874 225.491 147.724 224.340 143.449 221.714 C 134.922 216.476 129.591 214.825 121.000 214.763 C 111.427 214.695 106.166 216.154 97.687 221.228 C 89.643 226.042 83.499 227.071 77.574 224.595 L 73.704 222.979 74.295 214.617 C 75.073 203.589 79.324 184.815 83.718 173.000 C 98.636 132.889 127.594 101.438 167.500 82.008 C 190.808 70.660 210.364 65.419 243.500 61.642 C 250.350 60.861 275.136 61.086 283.500 62.006 M 279.973 522.366 C 282.238 523.863 297.986 524.000 468.223 524.000 L 654.000 524.000 654.000 535.500 L 654.000 547.000 461.253 547.000 L 268.506 547.000 203.261 481.761 L 138.017 416.523 146.746 407.752 L 155.476 398.982 216.488 459.857 C 250.045 493.338 278.613 521.467 279.973 522.366 "/></g>
<g fill="#000000FF" stroke="#000000FF">
<path d="M 68.000 416.651 C 62.532 418.833 59.015 425.870 60.457 431.743 C 60.899 433.544 71.340 444.737 90.567 464.022 C 106.755 480.259 120.000 493.874 120.000 494.277 C 120.000 494.681 105.319 514.584 87.376 538.506 L 54.752 582.000 34.126 582.006 C 11.947 582.012 7.617 582.650 4.060 586.436 C -0.617 591.414 0.623 601.999 6.260 605.220 C 7.898 606.156 17.173 606.634 40.750 607.000 L 73.000 607.500 43.000 652.500 C 16.829 691.758 13.001 697.985 13.000 701.300 C 13.000 709.525 18.639 714.639 26.706 713.730 C 29.112 713.458 31.899 712.497 32.898 711.593 C 33.897 710.688 50.150 686.785 69.017 658.474 L 103.320 607.000 176.660 607.000 L 250.000 607.000 250.000 655.032 C 250.000 706.001 250.099 707.162 254.784 711.335 C 257.484 713.738 264.166 714.588 267.972 713.011 C 269.628 712.326 271.886 710.302 272.991 708.514 C 274.932 705.375 275.000 703.591 275.000 656.132 L 275.000 607.000 437.495 607.000 L 599.990 607.000 634.890 659.335 C 672.720 716.065 671.701 714.840 680.117 713.711 C 687.398 712.735 692.543 704.865 690.233 698.239 C 689.668 696.617 676.109 675.654 660.103 651.654 C 644.096 627.654 631.000 607.788 631.000 607.509 C 631.000 607.229 648.145 607.000 669.100 607.000 L 707.200 607.000 710.600 603.600 C 713.554 600.646 714.000 599.548 714.000 595.235 C 714.000 589.417 711.491 585.521 706.364 583.379 C 703.592 582.221 666.296 582.000 473.284 582.000 L 243.504 582.000 160.893 499.393 C 78.907 417.411 78.248 416.783 73.891 416.419 C 71.476 416.217 68.825 416.322 68.000 416.651 M 147.665 582.000 C 114.017 582.000 86.982 581.615 87.167 581.138 C 87.350 580.664 98.975 564.944 113.000 546.205 L 138.500 512.133 173.498 547.067 L 208.496 582.000 147.665 582.000 "/></g>
<g fill="#000000FF" stroke="#000000FF">
<path d="M 597.182 54.057 C 590.295 55.282 582.876 58.445 576.000 63.086 C 561.056 73.174 552.798 89.159 552.798 108.000 C 552.798 138.704 576.358 162.311 607.000 162.311 C 630.849 162.311 650.880 148.116 658.802 125.602 C 662.401 115.375 662.412 100.487 658.827 90.398 C 652.933 73.810 640.666 61.614 624.346 56.117 C 617.134 53.687 604.602 52.737 597.182 54.057 M 619.249 80.987 C 625.239 83.803 631.144 89.686 634.082 95.764 C 635.838 99.398 636.373 102.245 636.381 108.000 C 636.393 117.320 633.499 123.568 626.077 130.241 C 614.417 140.724 596.833 139.907 585.799 128.370 C 570.042 111.894 578.091 84.797 600.500 78.880 C 605.336 77.603 614.159 78.594 619.249 80.987 "/></g>
<g fill="#000000FF" stroke="#000000FF">
<path d="M 549.500 148.960 C 548.400 149.419 543.152 154.237 537.838 159.667 C 530.306 167.364 528.025 170.352 527.485 173.226 C 525.957 181.375 533.635 189.041 541.793 187.511 C 544.726 186.962 547.663 184.680 555.852 176.590 C 565.402 167.156 566.244 166.013 566.714 161.847 C 567.338 156.310 565.201 151.673 561.033 149.517 C 557.860 147.876 552.698 147.627 549.500 148.960 "/></g>
<g fill="#000000FF" stroke="#000000FF">
<path d="M 669.500 29.419 C 667.850 30.156 662.056 35.307 656.625 40.866 L 646.750 50.974 647.213 56.552 C 647.849 64.220 650.780 67.151 658.448 67.787 L 664.026 68.250 674.135 58.375 C 679.695 52.944 684.890 46.991 685.679 45.146 C 688.331 38.946 685.390 32.174 678.920 29.585 C 674.191 27.693 673.395 27.679 669.500 29.419 "/></g>
<g fill="#000000FF" stroke="#000000FF">
<path d="M 652.420 149.885 C 648.466 152.297 646.582 156.845 647.305 162.236 C 647.804 165.955 649.057 167.610 658.276 176.718 L 668.683 187.000 673.942 187.000 C 678.588 187.000 679.595 186.605 682.600 183.600 C 685.611 180.589 686.000 179.594 686.000 174.900 L 686.000 169.600 675.200 158.800 C 664.699 148.299 664.277 148.000 659.950 148.004 C 657.362 148.006 654.211 148.793 652.420 149.885 "/></g>
<g fill="#000000FF" stroke="#000000FF">
<path d="M 531.400 32.400 C 528.395 35.405 528.000 36.412 528.000 41.058 L 528.000 46.317 538.282 56.724 C 547.279 65.831 549.075 67.200 552.643 67.679 C 561.305 68.841 567.858 62.436 566.717 53.925 C 566.191 50.004 565.083 48.528 555.724 39.282 L 545.317 29.000 540.058 29.000 C 535.412 29.000 534.405 29.395 531.400 32.400 "/></g>
<g fill="#000000FF" stroke="#000000FF">
<path d="M 603.333 170.108 C 601.591 170.606 599.004 172.396 597.583 174.084 C 595.048 177.096 595.000 177.445 595.000 192.677 L 595.000 208.200 598.400 211.600 C 601.395 214.595 602.420 215.000 607.000 215.000 C 611.580 215.000 612.605 214.595 615.600 211.600 L 619.000 208.200 619.000 192.677 C 619.000 177.506 618.942 177.085 616.456 174.130 C 614.149 171.388 612.476 170.476 608.000 169.521 C 607.175 169.345 605.075 169.609 603.333 170.108 "/></g>
<g fill="#000000FF" stroke="#000000FF">
<path d="M 503.400 99.400 C 500.405 102.395 500.000 103.420 500.000 108.000 C 500.000 112.580 500.405 113.605 503.400 116.600 L 506.800 120.000 522.323 120.000 C 537.526 120.000 537.909 119.947 540.894 117.436 C 544.637 114.286 546.192 109.279 544.890 104.564 C 544.368 102.675 542.570 99.975 540.894 98.564 C 537.909 96.053 537.526 96.000 522.323 96.000 L 506.800 96.000 503.400 99.400 "/></g>
<g fill="#000000FF" stroke="#000000FF">
<path d="M 672.400 99.400 C 669.405 102.395 669.000 103.420 669.000 108.000 C 669.000 112.580 669.405 113.605 672.400 116.600 L 675.800 120.000 691.500 120.000 L 707.200 120.000 710.600 116.600 C 713.595 113.605 714.000 112.580 714.000 108.000 C 714.000 103.420 713.595 102.395 710.600 99.400 L 707.200 96.000 691.500 96.000 L 675.800 96.000 672.400 99.400 "/></g>
<g fill="#000000FF" stroke="#000000FF">
<path d="M 598.400 4.400 L 595.000 7.800 595.000 23.500 L 595.000 39.200 598.400 42.600 C 601.395 45.595 602.420 46.000 607.000 46.000 C 611.580 46.000 612.605 45.595 615.600 42.600 L 619.000 39.200 619.000 23.500 L 619.000 7.800 615.600 4.400 C 610.639 -0.561 603.361 -0.561 598.400 4.400 "/></g>
</svg>
