<?xml version="1.0" encoding="utf-8"?>
<!DOCTYPE svg PUBLIC "-//W3C//DTD SVG 20010904//EN" "http://www.w3.org/TR/2001/REC-SVG-20010904/DTD/svg10.dtd">
<svg version="1.0" xmlns="http://www.w3.org/2000/svg" width="920pt" height="915pt" viewBox="0 0 920 915" style="" preserveAspectRatio="xMidYMid meet">
<g fill="#000000FF" stroke="#000000FF">
<path d="M 531.317 166.761 C 484.467 217.217 444.632 259.951 442.796 261.725 L 439.457 264.949 413.979 268.006 C 399.965 269.688 368.475 273.548 344.000 276.585 C 319.525 279.622 291.850 283.009 282.500 284.112 C 255.257 287.326 143.814 301.006 140.250 301.573 L 137.000 302.091 136.990 418.795 L 136.980 535.500 102.740 563.927 C 83.908 579.562 53.598 604.762 35.385 619.927 L 2.270 647.500 17.385 648.118 C 25.698 648.457 43.413 648.795 56.750 648.868 L 81.000 649.000 81.004 761.750 L 81.008 874.500 124.754 879.361 C 148.814 882.035 181.100 885.510 196.500 887.084 C 211.900 888.657 246.550 892.405 273.500 895.412 C 300.450 898.418 327.675 901.374 334.000 901.980 C 340.325 902.586 365.602 905.329 390.171 908.075 L 434.842 913.070 482.671 908.077 C 508.977 905.332 536.125 902.591 543.000 901.986 C 549.875 901.382 576.650 898.664 602.500 895.947 C 628.350 893.229 649.725 891.005 650.000 891.003 C 650.275 891.002 650.384 841.108 650.241 780.128 L 649.983 669.256 669.741 668.636 C 680.609 668.295 705.475 667.779 725.000 667.489 C 744.525 667.199 764.663 666.703 769.750 666.387 L 779.000 665.813 779.000 772.015 L 779.000 878.217 781.250 877.696 C 782.488 877.410 796.662 875.899 812.749 874.338 L 841.998 871.500 841.999 762.750 L 842.000 654.000 880.250 653.968 L 918.500 653.936 913.258 649.218 C 910.376 646.623 881.035 619.975 848.058 590.000 L 788.099 535.500 788.050 413.562 L 788.000 291.624 783.269 285.562 C 780.668 282.228 765.957 263.525 750.579 244.000 C 735.200 224.475 708.447 190.500 691.126 168.500 C 673.805 146.500 650.242 116.575 638.763 102.000 C 627.283 87.425 617.578 75.392 617.196 75.261 C 616.813 75.129 578.168 116.304 531.317 166.761 M 545.899 507.538 C 567.019 508.342 584.906 509.000 585.649 509.000 C 586.766 509.000 587.000 517.919 587.000 560.500 L 587.000 612.000 562.500 612.107 C 549.025 612.166 536.425 612.214 534.500 612.214 C 532.575 612.214 519.975 612.166 506.500 612.107 L 482.000 612.000 482.000 558.470 L 482.000 504.940 494.750 505.508 C 501.763 505.821 524.780 506.734 545.899 507.538 M 519.000 334.457 C 537.975 336.345 559.350 338.381 566.500 338.982 C 573.650 339.583 580.513 340.291 581.750 340.556 L 584.000 341.038 584.000 391.852 C 584.000 419.800 583.805 442.862 583.566 443.101 C 583.327 443.340 575.504 443.012 566.182 442.372 C 556.859 441.732 535.792 440.470 519.366 439.568 C 502.940 438.666 487.138 437.687 484.250 437.392 L 479.000 436.856 479.000 383.453 L 479.000 330.050 481.750 330.537 C 483.263 330.805 500.025 332.569 519.000 334.457 M 592.000 726.059 C 592.000 754.077 591.663 777.003 591.250 777.006 C 590.838 777.010 568.000 778.359 540.500 780.005 C 513.000 781.651 489.938 782.998 489.250 782.999 C 488.266 783.000 488.000 771.734 488.000 730.000 C 488.000 688.307 488.267 676.984 489.250 676.923 C 489.938 676.881 491.175 676.714 492.000 676.552 C 492.825 676.390 515.100 675.927 541.500 675.523 C 567.900 675.120 589.675 674.624 589.889 674.422 C 591.644 672.766 592.000 681.472 592.000 726.059 M 375.750 678.622 L 401.000 679.254 401.000 732.188 L 401.000 785.121 394.250 784.541 C 390.538 784.222 371.975 783.076 353.000 781.995 C 334.025 780.914 315.238 779.759 311.250 779.429 L 304.000 778.829 304.000 727.792 L 304.000 676.755 327.250 677.372 C 340.038 677.712 361.863 678.274 375.750 678.622 M 401.000 562.000 L 401.000 615.000 398.500 615.057 C 397.125 615.089 390.150 615.114 383.000 615.114 C 375.850 615.114 355.150 615.089 337.000 615.057 L 304.000 615.000 304.000 564.101 L 304.000 513.201 316.250 512.578 C 322.988 512.235 343.350 511.356 361.500 510.624 C 379.650 509.892 395.963 509.227 397.750 509.147 L 401.000 509.000 401.000 562.000 M 397.759 384.559 L 397.500 436.500 392.477 437.113 C 389.715 437.450 381.390 438.030 373.977 438.402 C 355.782 439.315 314.975 441.824 307.250 442.505 L 301.000 443.056 301.000 392.116 L 301.000 341.176 304.750 340.600 C 306.813 340.284 318.856 339.098 331.514 337.966 C 344.171 336.834 363.971 334.892 375.514 333.649 C 387.056 332.406 396.842 331.666 397.259 332.004 C 397.677 332.342 397.902 355.992 397.759 384.559 M 665.693 349.972 C 676.037 351.056 694.625 352.853 707.000 353.965 C 719.375 355.077 730.963 356.235 732.750 356.538 L 736.000 357.091 736.000 405.633 L 736.000 454.175 723.750 453.513 C 717.013 453.149 702.050 452.224 690.500 451.459 C 678.950 450.694 663.538 449.760 656.250 449.384 L 643.000 448.701 643.000 398.350 C 643.000 349.157 643.045 348.000 644.943 348.000 C 646.012 348.000 655.349 348.887 665.693 349.972 M 689.000 514.006 C 704.675 514.556 722.338 515.288 728.250 515.632 L 739.000 516.257 739.000 564.629 L 739.000 613.000 706.000 613.125 C 687.850 613.194 670.975 613.250 668.500 613.250 C 666.025 613.250 659.950 613.194 655.000 613.125 L 646.000 613.000 646.000 562.458 L 646.000 511.917 653.250 512.461 C 657.238 512.760 673.325 513.455 689.000 514.006 M 233.000 676.500 C 237.675 676.751 246.338 676.965 252.250 676.978 L 263.000 677.000 263.000 727.545 L 263.000 778.091 259.750 777.579 C 257.963 777.297 242.550 776.342 225.500 775.455 C 208.450 774.568 190.029 773.540 184.565 773.171 L 174.631 772.500 174.746 724.000 C 174.810 697.325 174.893 675.392 174.931 675.261 C 175.027 674.929 222.608 675.944 233.000 676.500 M 260.000 396.381 L 260.000 446.761 249.250 447.440 C 243.338 447.814 229.050 448.747 217.500 449.513 C 205.950 450.280 190.988 451.217 184.250 451.596 L 172.000 452.283 172.000 403.687 L 172.000 355.091 175.250 354.600 C 177.038 354.330 191.325 352.924 207.000 351.475 C 222.675 350.026 240.450 348.262 246.500 347.554 C 252.550 346.847 258.063 346.208 258.750 346.134 C 259.735 346.028 260.000 356.671 260.000 396.381 M 263.000 566.010 L 263.000 616.021 218.798 615.760 L 174.596 615.500 174.659 567.500 L 174.722 519.500 178.611 519.173 C 185.297 518.610 241.987 516.294 252.750 516.143 L 263.000 516.000 263.000 566.010 M 618.500 152.444 C 628.523 156.896 638.018 169.697 643.017 185.500 C 646.034 195.035 646.880 215.621 644.646 225.122 C 642.279 235.185 638.643 242.440 632.949 248.460 C 626.298 255.493 621.408 257.441 612.078 256.773 C 603.645 256.170 598.267 253.315 591.604 245.905 C 573.880 226.191 569.654 189.404 582.479 166.470 C 591.028 151.184 604.154 146.072 618.500 152.444 "/></g>
<g fill="#000000FF" stroke="#000000FF">
<path d="M 609.000 6.582 C 597.725 9.527 588.275 12.004 588.000 12.087 C 587.725 12.169 587.132 12.173 586.683 12.096 C 586.233 12.018 573.408 15.102 558.183 18.949 C 542.957 22.796 514.750 29.814 495.500 34.544 C 476.250 39.274 446.100 46.699 428.500 51.044 C 352.455 69.817 339.845 72.907 328.201 75.627 L 315.901 78.500 269.201 127.881 C 111.344 294.799 121.751 283.511 125.818 283.395 C 130.024 283.275 158.606 279.883 238.500 270.020 C 269.300 266.217 297.200 262.821 300.500 262.471 C 303.800 262.122 331.250 258.754 361.500 254.987 C 391.750 251.220 419.721 247.828 423.658 247.449 L 430.816 246.760 460.658 214.726 C 477.071 197.108 518.969 152.050 553.764 114.597 C 588.559 77.143 617.428 46.364 617.918 46.198 C 618.409 46.033 627.290 56.557 637.655 69.586 C 676.081 117.890 692.129 138.094 769.442 235.500 C 791.269 263.000 810.336 286.942 811.814 288.704 L 814.500 291.908 832.500 293.459 C 842.400 294.312 850.837 295.008 851.249 295.005 C 851.661 295.002 821.286 254.136 783.749 204.190 C 746.212 154.245 696.600 88.126 673.500 57.259 C 650.400 26.393 631.050 1.158 630.500 1.182 C 629.950 1.207 620.275 3.636 609.000 6.582 "/></g>
</svg>
