<?xml version="1.0" encoding="utf-8"?>
<!DOCTYPE svg PUBLIC "-//W3C//DTD SVG 20010904//EN" "http://www.w3.org/TR/2001/REC-SVG-20010904/DTD/svg10.dtd">
<svg version="1.0" xmlns="http://www.w3.org/2000/svg" width="1000pt" height="1000pt" viewBox="0 0 1000 1000" style="" preserveAspectRatio="xMidYMid meet">
<g fill="#050606FF" stroke="#050606FF">
<path d="M 459.000 232.628 C 400.004 237.831 349.545 252.016 299.000 277.605 C 183.263 336.199 101.713 444.309 76.552 572.500 C 74.476 583.077 70.000 614.188 70.000 618.038 C 70.000 618.652 222.521 619.000 492.000 619.000 C 761.479 619.000 914.000 618.652 914.000 618.038 C 914.000 614.188 909.524 583.077 907.448 572.500 C 895.897 513.653 871.960 457.600 837.797 409.404 C 774.711 320.405 680.070 259.622 572.518 239.033 C 545.931 233.943 533.142 232.833 497.500 232.525 C 478.800 232.363 461.475 232.410 459.000 232.628 M 526.500 243.074 C 578.776 247.114 631.575 262.013 679.273 286.183 C 797.710 346.199 879.728 459.438 900.048 591.000 C 901.110 597.875 901.984 604.738 901.989 606.250 L 902.000 609.000 491.862 609.000 L 81.724 609.000 82.409 602.311 C 84.340 583.464 92.249 548.628 99.735 526.000 C 116.722 474.653 141.711 429.775 176.856 387.500 C 188.529 373.459 218.117 344.565 233.000 332.675 C 279.506 295.519 330.696 269.775 387.500 254.976 C 432.828 243.166 477.833 239.313 526.500 243.074 "/></g>
<g fill="#050606FF" stroke="#050606FF">
<path d="M 454.338 267.494 C 403.661 273.261 353.414 289.784 307.500 315.780 C 293.572 323.665 268.980 340.448 255.000 351.609 C 238.141 365.068 206.427 396.628 193.811 412.500 C 162.948 451.331 140.399 494.090 127.630 538.000 C 123.829 551.068 119.645 569.988 118.463 579.453 L 117.770 585.000 491.885 585.000 C 810.546 585.000 866.000 584.794 866.000 583.610 C 866.000 580.908 862.826 565.345 859.860 553.500 C 827.756 425.313 723.100 318.222 592.661 280.083 C 577.130 275.541 555.214 270.871 538.000 268.433 C 522.015 266.170 471.004 265.597 454.338 267.494 M 734.560 370.340 C 791.131 419.912 832.001 486.449 849.514 557.490 C 851.432 565.266 853.000 572.387 853.000 573.314 C 853.000 574.885 845.162 575.000 737.648 575.000 L 622.295 575.000 621.653 566.750 C 620.953 557.754 617.277 541.595 614.017 533.181 C 609.051 520.367 599.628 504.477 591.671 495.500 L 588.125 491.500 654.310 425.250 C 690.711 388.813 720.747 359.000 721.057 359.000 C 721.366 359.000 727.443 364.103 734.560 370.340 M 326.824 427.881 L 393.975 492.263 391.963 494.881 C 380.570 509.707 373.952 521.406 369.092 535.312 C 365.376 545.946 362.000 561.936 362.000 568.907 L 362.000 574.000 246.500 574.000 C 143.910 574.000 131.000 573.830 131.000 572.483 C 131.000 569.546 135.185 551.694 138.577 540.161 C 157.286 476.555 195.377 418.161 249.500 370.116 C 253.900 366.210 257.989 363.124 258.586 363.257 C 259.184 363.391 289.891 392.472 326.824 427.881 M 487.000 362.352 L 487.000 448.705 478.679 449.345 C 455.266 451.144 429.532 461.731 409.751 477.701 L 401.727 484.179 394.614 477.246 C 390.701 473.433 360.595 444.547 327.710 413.057 C 278.690 366.113 268.133 355.545 269.099 354.381 C 273.130 349.523 306.171 328.224 326.000 317.702 C 371.886 293.350 432.688 276.575 476.750 276.108 L 487.000 276.000 487.000 362.352 M 540.500 279.027 C 595.852 287.196 647.627 307.613 695.500 340.151 C 702.650 345.010 709.384 349.672 710.465 350.511 C 712.337 351.963 709.305 355.162 646.544 417.949 L 580.657 483.862 575.579 479.585 C 563.527 469.437 544.330 458.982 529.500 454.489 C 520.749 451.838 505.688 449.000 500.369 449.000 L 497.000 449.000 497.000 362.345 L 497.000 275.689 511.750 276.325 C 519.863 276.674 532.800 277.890 540.500 279.027 M 504.066 461.423 C 542.490 464.065 580.684 490.440 599.028 527.000 C 605.448 539.796 611.000 560.262 611.000 571.131 L 611.000 575.000 491.853 575.000 L 372.707 575.000 373.321 567.750 C 374.181 557.600 378.200 542.513 382.855 531.965 C 388.570 519.015 397.045 506.850 407.947 495.947 C 423.747 480.148 441.794 469.751 462.706 464.402 C 471.970 462.032 488.533 460.036 494.000 460.631 C 495.375 460.781 499.905 461.137 504.066 461.423 "/></g>
</svg>
