<?xml version="1.0" encoding="utf-8"?>
<!DOCTYPE svg PUBLIC "-//W3C//DTD SVG 20010904//EN" "http://www.w3.org/TR/2001/REC-SVG-20010904/DTD/svg10.dtd">
<svg version="1.0" xmlns="http://www.w3.org/2000/svg" width="920pt" height="920pt" viewBox="0 0 920 920" style="" preserveAspectRatio="xMidYMid meet">
<g fill="#5F7C8AFF" stroke="#5F7C8AFF">
<path d="M 13.365 109.910 C 8.522 111.131 4.376 114.591 2.086 119.323 L 0.000 123.631 0.000 455.848 C 0.000 817.769 -0.403 791.725 5.298 797.831 C 12.061 805.074 16.748 804.788 44.258 795.450 C 113.245 772.034 194.801 753.458 276.504 742.552 C 303.349 738.969 323.703 736.736 341.500 735.420 C 346.450 735.054 351.278 734.613 352.229 734.439 C 353.180 734.265 359.480 733.839 366.229 733.493 C 372.978 733.146 379.850 732.676 381.500 732.448 C 398.422 730.111 514.305 730.111 531.500 732.449 C 533.150 732.673 539.851 733.136 546.392 733.478 C 552.933 733.819 559.908 734.284 561.892 734.510 C 563.876 734.737 571.125 735.416 578.000 736.019 C 678.442 744.834 786.575 767.129 872.239 796.686 C 888.637 802.344 891.928 803.171 896.531 802.789 C 902.620 802.284 907.903 798.907 910.751 793.698 C 912.405 790.674 912.515 772.408 912.772 458.000 C 913.019 156.364 912.897 125.110 911.457 121.297 C 908.521 113.519 899.111 107.943 891.666 109.570 C 889.925 109.950 883.550 112.402 877.500 115.019 C 805.342 146.228 684.866 171.062 569.500 178.507 C 564.550 178.826 558.025 179.279 555.000 179.513 C 551.975 179.747 542.750 180.211 534.500 180.544 C 526.250 180.877 516.575 181.338 513.000 181.569 C 504.672 182.107 400.107 182.176 399.190 181.644 C 398.811 181.424 389.950 180.943 379.500 180.575 C 369.050 180.207 358.475 179.706 356.000 179.461 C 353.525 179.216 344.525 178.545 336.000 177.970 C 311.097 176.291 276.086 172.569 246.500 168.456 C 164.605 157.073 85.172 136.843 33.020 114.087 C 22.806 109.630 18.284 108.669 13.365 109.910 M 274.000 209.447 C 288.276 211.026 315.446 213.557 328.000 214.476 C 332.125 214.779 341.534 215.469 348.909 216.010 C 396.389 219.493 506.954 219.502 562.500 216.026 C 580.749 214.885 591.513 214.105 598.000 213.457 C 600.475 213.209 607.675 212.545 614.000 211.980 C 626.252 210.886 649.685 208.286 654.250 207.515 L 657.000 207.050 657.000 457.544 L 657.000 708.038 654.750 707.582 C 652.230 707.071 649.345 706.673 632.927 704.568 C 538.526 692.467 433.151 690.330 337.000 698.566 C 307.977 701.052 265.304 705.906 258.250 707.522 L 256.000 708.038 256.000 457.500 L 256.000 206.962 258.250 207.458 C 259.488 207.731 266.575 208.626 274.000 209.447 M 874.252 759.521 C 867.780 756.954 843.577 749.117 828.000 744.544 C 790.638 733.576 752.184 724.363 714.750 717.412 L 694.000 713.559 694.000 457.779 C 694.000 317.101 694.131 202.000 694.292 202.000 C 696.326 202.000 738.616 194.006 752.362 191.023 C 795.711 181.617 840.292 168.286 868.500 156.296 L 875.500 153.320 875.752 456.768 C 875.991 745.528 875.918 760.182 874.252 759.521 M 71.846 166.661 C 107.766 179.224 152.610 190.485 198.998 198.592 C 209.722 200.467 218.609 202.000 218.748 202.000 C 218.887 202.000 219.000 317.200 219.000 458.000 C 219.000 708.459 218.959 714.000 217.108 714.000 C 216.067 714.000 210.555 714.908 204.858 716.018 C 199.161 717.128 190.900 718.728 186.500 719.572 C 144.969 727.545 88.688 742.301 52.853 754.611 C 44.226 757.575 37.018 760.000 36.834 760.000 C 36.650 760.000 36.614 623.455 36.753 456.567 L 37.006 153.135 46.753 157.214 C 52.114 159.458 63.406 163.709 71.846 166.661 "/></g>
</svg>
