<?xml version="1.0" encoding="utf-8"?>
<!DOCTYPE svg PUBLIC "-//W3C//DTD SVG 20010904//EN" "http://www.w3.org/TR/2001/REC-SVG-20010904/DTD/svg10.dtd">
<svg version="1.0" xmlns="http://www.w3.org/2000/svg" width="512pt" height="512pt" viewBox="0 0 512 512" style="" preserveAspectRatio="xMidYMid meet">
<g fill="#37586CFF" stroke="#37586CFF">
<path d="M 238.500 56.940 C 230.250 62.399 222.735 67.458 221.800 68.182 C 220.865 68.907 216.140 71.975 211.300 75.000 C 206.460 78.025 193.500 86.469 182.500 93.765 C 159.926 108.737 161.066 107.987 155.000 111.857 C 152.525 113.436 139.925 121.680 127.000 130.176 C 114.075 138.673 101.030 147.172 98.011 149.062 C 94.992 150.953 82.167 159.416 69.511 167.869 C 56.855 176.321 45.825 183.496 45.000 183.813 C 44.175 184.129 42.962 184.863 42.304 185.444 C 41.647 186.025 33.450 191.450 24.089 197.500 L 7.070 208.500 7.035 244.250 L 7.000 280.000 28.000 280.000 L 49.000 280.000 49.000 389.000 L 49.000 498.000 77.500 498.000 L 106.000 498.000 106.000 389.000 L 106.000 280.000 255.981 280.000 L 405.962 280.000 406.510 282.250 C 406.812 283.488 406.933 332.538 406.779 391.250 L 406.500 498.000 434.750 498.000 L 463.000 498.000 463.000 389.000 L 463.000 280.000 484.000 280.000 L 505.000 280.000 504.960 244.250 L 504.921 208.500 487.931 197.500 C 478.586 191.450 470.311 185.938 469.542 185.250 C 468.772 184.563 467.845 184.000 467.481 184.000 C 467.117 184.000 455.722 176.643 442.159 167.652 C 428.597 158.661 413.675 148.829 409.000 145.805 C 404.325 142.780 392.625 135.134 383.000 128.813 C 373.375 122.493 358.750 112.907 350.500 107.512 C 342.250 102.117 329.200 93.562 321.500 88.500 C 313.800 83.438 303.900 76.992 299.500 74.174 C 295.100 71.357 290.732 68.505 289.793 67.836 C 276.992 58.719 257.997 47.016 256.000 47.016 C 254.509 47.016 247.447 51.021 238.500 56.940 M 283.082 100.750 C 310.385 118.815 343.668 140.663 368.000 156.493 C 375.425 161.324 388.475 169.877 397.000 175.500 C 405.525 181.124 416.100 188.029 420.500 190.845 C 424.900 193.661 428.978 196.362 429.563 196.847 C 430.148 197.332 431.713 198.311 433.042 199.023 C 434.371 199.734 435.985 200.807 436.629 201.408 C 437.273 202.009 446.395 208.098 456.900 214.941 L 476.000 227.382 476.000 238.191 L 476.000 249.000 455.750 249.118 C 444.613 249.184 434.938 249.164 434.250 249.075 C 433.256 248.946 433.000 273.001 433.000 366.456 L 433.000 484.000 426.500 484.000 L 420.000 484.000 420.000 375.000 L 420.000 266.000 256.000 266.000 L 92.000 266.000 92.000 375.000 L 92.000 484.000 85.500 484.000 L 79.000 484.000 79.000 366.500 L 79.000 249.000 57.500 249.000 L 36.000 249.000 36.000 238.139 L 36.000 227.278 42.750 222.938 C 51.675 217.199 81.227 197.727 82.500 196.747 C 84.626 195.110 97.179 187.000 97.587 187.000 C 97.823 187.000 107.351 180.790 118.758 173.199 C 130.166 165.608 142.927 157.171 147.115 154.449 C 169.614 139.827 205.223 116.433 228.804 100.782 C 243.487 91.037 255.670 83.050 255.877 83.032 C 256.084 83.014 268.327 90.988 283.082 100.750 "/></g>
<g fill="#37586CFF" stroke="#37586CFF">
<path d="M 260.460 335.243 C 260.194 335.938 260.093 353.605 260.238 374.503 L 260.500 412.500 305.000 412.500 L 349.500 412.500 349.500 373.500 L 349.500 334.500 305.223 334.240 C 270.278 334.034 260.843 334.245 260.460 335.243 M 286.424 354.834 L 286.348 365.518 283.973 361.759 C 282.667 359.692 281.060 358.000 280.403 358.000 C 279.746 358.000 277.762 360.255 275.993 363.010 L 272.778 368.021 272.934 355.760 L 273.090 343.500 279.795 343.825 L 286.500 344.149 286.424 354.834 "/></g>
<g fill="#37586CFF" stroke="#37586CFF">
<path d="M 162.460 335.243 C 162.194 335.938 162.093 353.605 162.238 374.503 L 162.500 412.500 207.000 412.500 L 251.500 412.500 251.500 373.500 L 251.500 334.500 207.223 334.240 C 172.278 334.034 162.843 334.245 162.460 335.243 M 189.320 354.850 L 189.141 365.700 186.820 362.113 C 183.712 357.311 181.964 357.260 179.126 361.887 L 176.751 365.757 176.626 354.880 L 176.500 344.002 183.000 344.001 L 189.500 344.000 189.320 354.850 "/></g>
<g fill="#37586CFF" stroke="#37586CFF">
<path d="M 211.677 421.656 C 211.305 422.029 211.000 439.358 211.000 460.167 L 211.000 498.000 256.012 498.000 L 301.024 498.000 300.762 459.750 L 300.500 421.500 256.427 421.240 C 232.187 421.097 212.049 421.284 211.677 421.656 M 238.782 441.750 L 238.500 453.500 235.500 448.752 C 233.850 446.141 232.050 444.145 231.500 444.318 C 230.950 444.491 229.417 446.283 228.093 448.300 L 225.687 451.967 225.593 440.984 L 225.500 430.001 232.282 430.001 L 239.063 430.000 238.782 441.750 "/></g>
<g fill="#37586CFF" stroke="#37586CFF">
<path d="M 309.000 459.490 L 309.000 498.000 353.512 498.000 L 398.024 498.000 397.762 459.750 L 397.500 421.500 353.250 421.240 L 309.000 420.979 309.000 459.490 M 335.375 440.985 L 335.250 451.968 332.489 447.984 C 330.970 445.793 329.345 444.000 328.877 444.000 C 328.408 444.000 326.863 445.841 325.442 448.091 L 322.860 452.182 322.680 441.091 L 322.500 430.000 329.000 430.001 L 335.500 430.002 335.375 440.985 "/></g>
<g fill="#37586CFF" stroke="#37586CFF">
<path d="M 114.667 421.667 C 114.300 422.033 114.000 439.358 114.000 460.167 L 114.000 498.000 158.500 498.000 L 203.000 498.000 203.000 459.500 L 203.000 421.000 159.167 421.000 C 135.058 421.000 115.033 421.300 114.667 421.667 M 141.015 439.750 C 141.026 446.414 141.337 449.025 142.000 448.000 C 142.790 446.778 142.972 446.901 142.985 448.667 C 143.010 452.269 140.666 451.905 137.663 447.840 C 134.382 443.398 133.513 443.159 131.885 446.250 C 131.234 447.488 130.392 448.725 130.015 449.000 C 129.638 449.275 128.819 450.400 128.195 451.500 C 127.299 453.080 127.054 451.030 127.030 441.750 L 127.000 430.000 134.000 430.000 L 141.000 430.000 141.015 439.750 "/></g>
<g fill="#37586CFF" stroke="#37586CFF">
<path d="M 336.238 197.163 C 335.340 198.060 335.000 203.681 335.000 217.618 C 335.000 228.188 335.230 237.436 335.511 238.168 C 335.921 239.236 341.122 239.464 361.761 239.320 L 387.500 239.140 387.771 218.392 C 387.973 202.870 387.734 197.453 386.819 196.888 C 386.146 196.472 385.252 196.344 384.832 196.604 C 383.496 197.429 338.011 197.534 337.737 196.713 C 337.593 196.279 336.918 196.482 336.238 197.163 M 373.168 217.998 L 372.836 225.000 360.918 225.000 L 349.000 225.000 349.000 218.000 L 349.000 211.000 361.250 210.998 L 373.500 210.995 373.168 217.998 "/></g>
<g fill="#37586CFF" stroke="#37586CFF">
<path d="M 125.181 196.888 C 124.266 197.453 124.027 202.870 124.229 218.392 L 124.500 239.140 150.239 239.320 C 170.878 239.464 176.079 239.236 176.489 238.168 C 176.770 237.436 177.000 228.153 177.000 217.541 C 177.000 201.609 176.738 198.028 175.500 197.000 C 174.675 196.315 174.000 196.148 174.000 196.628 C 174.000 197.506 128.591 197.483 127.168 196.604 C 126.748 196.344 125.854 196.472 125.181 196.888 M 163.000 218.000 L 163.000 225.000 151.082 225.000 L 139.164 225.000 138.832 217.998 L 138.500 210.995 150.750 210.998 L 163.000 211.000 163.000 218.000 "/></g>
<g fill="#37586CFF" stroke="#37586CFF">
<path d="M 195.417 196.917 C 195.187 197.146 195.000 206.933 195.000 218.667 C 195.000 237.322 195.196 240.000 196.559 240.000 C 197.416 240.000 197.909 239.663 197.652 239.250 C 197.396 238.838 208.057 238.735 221.343 239.022 C 234.630 239.309 245.838 239.395 246.250 239.213 C 246.663 239.031 247.000 229.459 247.000 217.941 C 247.000 201.865 246.710 196.996 245.750 196.982 C 221.973 196.634 195.733 196.600 195.417 196.917 M 233.000 218.000 L 233.000 225.000 221.000 225.000 L 209.000 225.000 209.000 218.000 L 209.000 211.000 221.000 211.000 L 233.000 211.000 233.000 218.000 "/></g>
<g fill="#37586CFF" stroke="#37586CFF">
<path d="M 266.750 196.787 C 265.151 197.116 265.000 198.944 265.000 218.014 C 265.000 229.492 265.338 239.031 265.750 239.213 C 266.163 239.395 277.370 239.309 290.657 239.022 C 303.943 238.735 314.604 238.838 314.348 239.250 C 314.091 239.663 314.584 240.000 315.441 240.000 C 316.804 240.000 317.000 237.322 317.000 218.667 C 317.000 206.933 316.814 197.146 316.586 196.917 C 316.358 196.688 305.558 196.725 292.584 197.000 C 279.611 197.275 268.885 197.259 268.749 196.964 C 268.612 196.669 267.713 196.590 266.750 196.787 M 303.000 218.000 L 303.000 225.000 291.000 225.000 L 279.000 225.000 279.000 218.000 L 279.000 211.000 291.000 211.000 L 303.000 211.000 303.000 218.000 "/></g>
</svg>
