<?xml version="1.0" standalone="no"?>
<!DOCTYPE svg PUBLIC "-//W3C//DTD SVG 20010904//EN"
 "http://www.w3.org/TR/2001/REC-SVG-20010904/DTD/svg10.dtd">
<svg version="1.0" xmlns="http://www.w3.org/2000/svg"
 width="900.000000pt" height="520.000000pt" viewBox="0 0 900.000000 520.000000"
 preserveAspectRatio="xMidYMid meet">
<metadata>
Created by potrace 1.16, written by Peter Selinger 2001-2019
</metadata>
<g transform="translate(0.000000,520.000000) scale(0.100000,-0.100000)"
fill="#000000" stroke="none">
<path d="M3826 4131 c-588 -588 -1071 -1076 -1072 -1083 -2 -7 -10 -31 -18
-53 -29 -77 -17 -182 28 -246 13 -19 67 -106 120 -194 112 -185 193 -300 303
-432 141 -170 143 -172 143 -209 0 -93 -66 -147 -399 -326 -320 -173 -384
-218 -532 -373 -149 -157 -281 -340 -362 -500 -144 -288 -123 -507 58 -600 53
-27 68 -30 149 -30 188 1 404 104 681 324 234 186 339 317 525 656 182 330
242 405 327 405 33 0 61 -18 175 -116 102 -88 260 -200 433 -306 72 -44 155
-96 185 -117 102 -68 169 -83 260 -56 30 9 63 17 72 18 10 1 499 483 1088
1072 l1070 1070 -1083 1083 -1082 1082 -1069 -1069z m2995 -1130 c-18 -17 -38
-31 -44 -31 -5 0 -51 13 -102 29 -76 25 -122 32 -261 41 -186 13 -296 7 -453
-21 -144 -26 -216 -25 -272 4 -89 47 -137 149 -184 391 -52 264 -101 336 -229
336 -70 0 -154 -30 -366 -130 -283 -134 -359 -158 -449 -145 -59 9 -91 26
-128 69 -48 54 -67 124 -66 246 2 186 59 389 179 630 110 222 156 287 312 438
l137 132 979 -979 980 -980 -33 -30z m-1691 -1666 l-220 -220 -967 967 -968
968 220 220 220 220 967 -967 968 -968 -220 -220z"/>
</g>
</svg>
