<?xml version="1.0" encoding="utf-8"?>
<!DOCTYPE svg PUBLIC "-//W3C//DTD SVG 20010904//EN" "http://www.w3.org/TR/2001/REC-SVG-20010904/DTD/svg10.dtd">
<svg version="1.0" xmlns="http://www.w3.org/2000/svg" width="900pt" height="520pt" viewBox="0 0 900 520" style="" preserveAspectRatio="xMidYMid meet">
<g fill="#000000FF" stroke="#000000FF">
<path d="M 433.697 12.294 C 426.989 18.506 410.242 33.918 396.482 46.544 C 273.738 159.173 211.741 216.466 210.407 218.501 C 208.326 221.678 209.351 226.345 212.712 228.988 C 215.138 230.897 216.727 231.000 243.635 231.000 L 272.000 231.000 272.000 368.066 C 272.000 464.338 272.322 505.732 273.080 507.150 C 275.781 512.196 268.623 512.000 450.000 512.000 C 631.377 512.000 624.219 512.196 626.920 507.150 C 627.678 505.732 628.000 464.338 628.000 368.066 L 628.000 231.000 656.444 231.000 C 684.518 231.000 684.922 230.971 687.445 228.750 C 691.118 225.518 691.702 221.162 688.934 217.643 C 687.712 216.090 673.151 202.372 656.577 187.159 C 640.002 171.947 604.652 139.475 578.020 115.000 C 442.905 -9.173 454.338 1.000 449.897 1.000 C 446.184 1.000 445.015 1.815 433.697 12.294 M 458.689 28.643 C 493.960 60.664 658.569 212.359 658.833 213.084 C 659.028 213.620 650.277 214.000 637.720 214.000 L 616.273 214.000 613.636 216.636 L 611.000 219.273 611.000 356.611 L 611.000 493.949 576.496 494.225 C 557.518 494.376 541.543 494.350 540.996 494.167 C 540.355 493.952 540.000 478.419 540.000 450.646 L 540.000 407.458 552.148 395.260 L 564.297 383.062 569.898 383.642 C 577.391 384.418 583.239 382.680 588.217 378.196 C 593.432 373.499 596.143 367.446 596.143 360.500 C 596.143 349.762 589.813 341.455 579.302 338.400 C 569.420 335.527 559.797 339.083 553.759 347.840 C 551.115 351.675 550.484 353.651 550.192 359.000 C 549.998 362.575 550.275 366.625 550.809 368.000 C 551.709 370.318 550.734 371.563 537.390 385.135 L 523.000 399.770 523.000 446.885 L 523.000 494.000 512.500 494.000 L 502.000 494.000 502.000 398.964 L 502.000 303.929 510.229 295.896 C 518.197 288.118 518.570 287.888 521.979 288.644 C 530.121 290.448 538.046 288.654 543.645 283.739 C 556.103 272.800 553.741 253.181 539.071 245.750 C 526.428 239.346 512.556 244.306 507.003 257.216 C 505.133 261.561 504.855 263.540 505.356 268.907 L 505.959 275.367 495.480 286.113 C 487.245 294.557 484.995 297.464 484.976 299.680 C 484.964 301.231 484.851 345.475 484.726 398.000 L 484.500 493.500 473.750 493.784 L 463.000 494.068 463.000 323.546 L 463.000 153.025 466.990 150.506 C 474.789 145.583 478.961 135.710 477.036 126.732 C 475.569 119.890 472.743 115.607 467.162 111.768 C 463.452 109.215 461.253 108.484 456.351 108.171 C 448.652 107.681 443.861 109.229 438.713 113.871 C 428.910 122.709 428.279 137.430 437.301 146.835 C 439.060 148.670 441.738 150.819 443.250 151.611 L 446.000 153.051 446.000 323.456 L 446.000 493.861 443.750 494.180 C 442.513 494.356 437.568 494.356 432.762 494.179 L 424.023 493.859 423.762 371.447 L 423.500 249.036 413.309 238.768 L 403.118 228.500 404.535 223.124 C 408.480 208.159 397.767 194.615 381.922 194.534 C 376.308 194.505 374.624 194.945 370.438 197.533 C 357.978 205.236 355.150 221.806 364.442 232.661 C 369.462 238.526 376.698 241.411 384.549 240.678 L 390.651 240.108 398.830 248.329 L 407.008 256.550 406.754 375.497 L 406.500 494.444 404.250 494.333 C 403.013 494.272 398.184 494.172 393.520 494.111 L 385.039 494.000 384.770 423.013 L 384.500 352.025 370.116 337.616 L 355.732 323.207 356.866 319.954 C 359.445 312.555 357.616 303.794 352.252 297.857 C 347.249 292.320 341.899 289.795 335.081 289.754 C 321.287 289.670 311.615 299.252 311.537 313.078 C 311.505 318.692 311.944 320.374 314.526 324.552 C 316.403 327.588 319.413 330.597 322.450 332.474 C 326.845 335.190 328.204 335.506 335.721 335.563 L 344.096 335.627 356.048 347.548 L 368.000 359.469 368.000 426.568 C 368.000 463.472 367.813 493.854 367.584 494.083 C 367.355 494.313 349.580 494.377 328.084 494.227 L 289.000 493.954 289.000 356.614 L 289.000 219.273 286.364 216.636 L 283.727 214.000 262.280 214.000 C 249.534 214.000 240.969 213.624 241.167 213.073 C 241.505 212.131 449.178 21.031 449.885 21.011 C 450.097 21.005 454.059 24.439 458.689 28.643 M 339.250 308.807 C 342.848 311.897 339.841 319.000 334.934 319.000 C 327.814 319.000 325.733 309.522 332.315 307.075 C 334.795 306.153 336.719 306.634 339.250 308.807 M 531.600 260.765 C 535.613 263.445 535.099 270.284 530.765 271.895 C 526.906 273.330 522.000 270.348 522.000 266.568 C 522.000 261.644 527.730 258.181 531.600 260.765 M 385.777 212.557 C 390.406 215.798 387.539 224.000 381.777 224.000 C 379.199 224.000 376.000 220.401 376.000 217.500 C 376.000 214.599 379.199 211.000 381.777 211.000 C 382.755 211.000 384.555 211.701 385.777 212.557 M 577.750 356.792 C 580.662 360.497 577.998 367.000 573.568 367.000 C 568.650 367.000 565.169 361.250 567.765 357.415 C 570.108 353.954 575.266 353.632 577.750 356.792 M 458.429 126.571 C 459.293 127.436 460.000 129.429 460.000 131.000 C 460.000 134.558 457.663 137.000 454.257 137.000 C 448.832 137.000 446.038 130.826 449.655 126.829 C 451.685 124.585 456.307 124.450 458.429 126.571 "/></g>
</svg>
