<?xml version="1.0" encoding="utf-8"?>
<!DOCTYPE svg PUBLIC "-//W3C//DTD SVG 20010904//EN" "http://www.w3.org/TR/2001/REC-SVG-20010904/DTD/svg10.dtd">
<svg version="1.0" xmlns="http://www.w3.org/2000/svg" width="900pt" height="520pt" viewBox="0 0 900 520" style="" preserveAspectRatio="xMidYMid meet">
<g fill="#000000FF" stroke="#000000FF">
<path d="M 447.910 21.359 C 443.692 22.881 287.500 144.197 285.893 147.200 C 283.721 151.258 284.556 156.214 287.916 159.216 C 290.879 161.864 291.515 162.000 300.934 162.000 C 306.380 162.000 311.548 162.273 312.418 162.607 C 313.839 163.152 314.000 170.205 314.000 232.072 C 314.000 299.126 313.949 300.957 312.066 301.965 C 310.799 302.643 290.860 303.000 254.257 303.000 C 207.579 303.000 198.063 303.234 196.441 304.419 C 194.544 305.806 194.500 307.915 194.500 397.008 L 194.500 488.177 196.989 490.193 C 198.956 491.785 200.492 492.111 204.298 491.745 C 206.949 491.491 209.654 490.746 210.309 490.092 C 211.203 489.198 211.625 468.315 212.000 406.369 C 212.486 326.130 212.554 323.799 214.441 322.419 C 217.364 320.282 682.636 320.282 685.559 322.419 C 687.446 323.799 687.514 326.130 688.000 406.369 C 688.375 468.315 688.797 489.198 689.691 490.092 C 690.346 490.746 693.051 491.491 695.702 491.745 C 699.508 492.111 701.044 491.785 703.011 490.193 L 705.500 488.177 705.500 397.008 C 705.500 307.915 705.456 305.806 703.559 304.419 C 701.940 303.236 692.801 303.000 648.531 303.000 C 602.103 303.000 595.166 302.805 593.223 301.443 L 591.000 299.887 591.000 231.919 L 591.000 163.950 593.565 162.975 C 594.976 162.439 599.948 162.000 604.615 162.000 C 614.383 162.000 618.107 160.571 619.953 156.113 C 622.725 149.422 620.776 146.879 601.500 132.027 C 594.900 126.942 588.713 121.881 587.750 120.780 C 586.176 118.979 586.000 116.054 585.996 91.639 C 585.991 53.396 587.347 55.066 556.201 54.958 C 537.563 54.894 534.638 55.101 531.980 56.671 C 528.786 58.558 525.000 65.145 525.000 68.816 C 525.000 70.017 524.568 71.000 524.040 71.000 C 523.511 71.000 509.712 60.591 493.375 47.869 C 477.038 35.148 462.283 23.941 460.586 22.966 C 456.125 20.404 452.006 19.882 447.910 21.359 M 520.000 91.047 C 556.025 119.107 585.652 142.507 585.838 143.047 C 586.024 143.587 584.674 144.658 582.838 145.427 C 578.489 147.249 575.193 150.841 573.976 155.083 C 573.383 157.153 573.000 186.198 573.000 229.187 L 573.000 299.887 570.777 301.443 C 568.868 302.781 563.582 303.000 533.212 303.000 C 510.761 303.000 497.163 302.622 495.934 301.965 C 494.105 300.986 494.000 299.636 494.000 277.101 C 494.000 263.996 493.547 250.882 492.992 247.960 C 490.049 232.438 479.140 220.252 464.764 216.425 C 454.712 213.749 439.654 214.962 431.804 219.081 C 423.922 223.216 417.150 231.500 413.478 241.500 C 411.908 245.777 411.583 250.477 411.235 273.994 C 410.948 293.421 410.487 301.705 409.664 302.229 C 407.805 303.412 336.171 303.162 333.934 301.965 C 332.049 300.956 332.000 299.081 332.000 228.113 L 332.000 155.296 329.711 151.898 C 328.453 150.029 325.528 147.454 323.211 146.175 C 320.895 144.896 319.021 143.546 319.046 143.175 C 319.146 141.702 450.632 40.127 452.500 40.080 C 453.667 40.051 481.780 61.278 520.000 91.047 M 461.775 234.175 C 466.648 235.658 470.995 239.795 473.633 245.459 C 475.900 250.327 475.981 251.365 475.990 275.715 C 475.999 299.626 475.900 300.983 474.066 301.965 C 471.207 303.495 431.747 303.347 430.200 301.800 C 429.333 300.933 429.000 293.907 429.000 276.482 C 429.000 250.773 429.785 245.086 434.086 239.618 C 439.286 233.008 450.616 230.781 461.775 234.175 M 568.393 73.582 C 569.283 75.900 569.135 101.799 568.229 102.359 C 567.805 102.621 561.955 98.275 555.229 92.702 L 543.000 82.569 543.000 77.951 C 543.000 75.411 543.300 73.033 543.667 72.667 C 544.033 72.300 549.610 72.000 556.060 72.000 C 565.830 72.000 567.887 72.264 568.393 73.582 "/></g>
<g fill="#000000FF" stroke="#000000FF">
<path d="M 436.495 389.111 C 417.798 413.401 399.903 436.587 396.729 440.637 C 390.607 448.448 387.734 449.817 385.995 445.750 C 385.466 444.513 379.618 425.500 373.000 403.500 C 359.695 359.271 359.602 359.000 357.712 359.000 C 356.981 359.000 346.821 370.178 335.136 383.841 C 320.986 400.386 312.728 409.236 310.411 410.341 C 307.420 411.767 302.894 412.000 278.121 412.000 C 251.479 412.000 249.185 412.138 247.655 413.829 C 245.378 416.345 245.555 421.555 248.000 424.000 C 249.916 425.916 251.332 426.000 281.750 425.998 C 309.974 425.997 313.889 425.803 317.000 424.248 C 319.130 423.185 326.039 416.040 334.647 406.000 C 350.240 387.814 352.896 385.999 354.851 392.193 C 355.425 394.012 360.451 410.575 366.020 429.000 C 379.982 475.193 381.435 479.500 383.049 479.500 C 384.480 479.500 387.595 475.578 433.677 415.750 C 452.048 391.899 461.820 380.000 463.036 380.000 C 465.081 380.000 465.533 381.756 469.080 403.500 C 470.246 410.650 471.841 417.513 472.623 418.750 C 474.570 421.828 476.608 421.707 502.625 416.977 C 525.780 412.768 528.760 412.739 530.806 416.702 C 531.317 417.691 536.131 431.435 541.504 447.246 C 546.877 463.056 551.850 476.781 552.556 477.746 C 553.762 479.394 553.986 479.362 556.289 477.198 C 557.636 475.933 568.135 463.459 579.619 449.480 C 595.490 430.161 601.476 423.575 604.566 422.031 C 608.300 420.165 610.515 420.000 631.759 420.000 C 654.525 420.000 654.911 419.965 656.443 417.777 C 658.588 414.715 658.393 410.393 656.000 408.000 C 654.102 406.102 652.667 406.000 627.968 406.000 C 607.725 406.000 601.179 406.316 598.532 407.422 C 596.106 408.436 590.381 414.574 578.586 428.807 C 569.487 439.786 561.430 449.005 560.681 449.292 C 559.932 449.580 558.744 449.460 558.042 449.026 C 557.340 448.592 553.064 437.514 548.541 424.408 C 541.998 405.452 539.793 400.188 537.757 398.668 C 535.213 396.769 535.057 396.782 512.685 400.878 C 500.304 403.145 489.509 405.000 488.698 405.000 C 487.886 405.000 486.256 404.213 485.076 403.250 C 483.226 401.741 482.281 397.646 478.215 373.509 C 474.587 351.973 473.153 345.452 471.995 345.233 C 471.034 345.051 458.199 360.915 436.495 389.111 "/></g>
<g fill="#000000FF" stroke="#000000FF">
<path d="M 444.464 73.333 C 439.445 76.203 351.966 141.636 350.250 143.804 C 348.121 146.493 348.754 150.661 351.635 152.927 C 353.084 154.067 355.101 155.000 356.118 155.000 C 357.134 155.000 378.762 139.410 404.179 120.355 C 429.596 101.300 451.186 85.503 452.158 85.249 C 453.336 84.940 467.921 95.220 495.990 116.143 C 551.338 157.400 548.409 155.365 551.385 154.618 C 555.356 153.622 557.141 151.170 556.803 147.178 C 556.509 143.717 555.059 142.529 510.500 109.264 C 485.200 90.376 462.700 74.050 460.500 72.983 C 455.113 70.371 449.424 70.495 444.464 73.333 "/></g>
</svg>
