<?xml version="1.0" standalone="no"?>
<!DOCTYPE svg PUBLIC "-//W3C//DTD SVG 20010904//EN"
 "http://www.w3.org/TR/2001/REC-SVG-20010904/DTD/svg10.dtd">
<svg version="1.0" xmlns="http://www.w3.org/2000/svg"
 width="900.000000pt" height="520.000000pt" viewBox="0 0 900.000000 520.000000"
 preserveAspectRatio="xMidYMid meet">
<metadata>
Created by potrace 1.16, written by Peter Selinger 2001-2019
</metadata>
<g transform="translate(0.000000,520.000000) scale(0.100000,-0.100000)"
fill="#000000" stroke="none">
<path d="M4446 5166 c-21 -8 -50 -25 -65 -39 -14 -13 -296 -267 -626 -563
-1677 -1507 -1780 -1601 -1798 -1638 -23 -49 -22 -93 6 -146 26 -52 59 -78
113 -90 21 -5 159 -10 306 -10 l268 0 2 -1227 3 -1228 23 -37 c13 -20 40 -47
60 -60 l37 -23 1725 0 1725 0 37 23 c20 13 47 40 60 60 l23 37 3 1228 2 1227
268 0 c276 0 328 6 371 37 34 25 71 98 71 141 0 62 -34 104 -232 283 -106 96
-557 503 -1003 904 -445 401 -904 815 -1019 918 -115 104 -219 192 -231 197
-46 17 -91 19 -129 6z m1004 -1247 c520 -468 954 -860 965 -870 20 -20 19 -20
-82 -17 l-101 3 -807 720 c-444 396 -825 730 -847 743 -23 12 -58 22 -78 22
-20 0 -55 -10 -78 -22 -32 -18 -1070 -936 -1572 -1390 l-85 -77 -100 0 -100 0
35 31 c19 17 431 387 915 822 484 435 903 812 930 838 28 26 52 48 55 48 3 0
431 -383 950 -851z m-479 -221 c254 -227 589 -526 743 -663 l281 -251 3 -1167
2 -1167 -1500 0 -1500 0 2 1167 3 1167 744 663 c409 365 747 663 751 663 4 0
216 -186 471 -412z"/>
<path d="M3643 2601 c-58 -27 -89 -79 -101 -166 -7 -51 -22 -95 -55 -160 -58
-113 -77 -189 -77 -302 0 -112 18 -183 80 -308 45 -89 50 -107 50 -165 0 -58
-5 -76 -50 -165 -27 -55 -57 -127 -65 -160 -17 -69 -20 -171 -4 -212 24 -64
87 -105 159 -105 97 0 158 61 170 169 5 51 19 91 53 159 65 130 81 190 81 314
0 126 -14 179 -85 322 -47 96 -50 107 -46 163 3 46 16 83 54 160 54 108 68
153 78 256 6 55 4 74 -13 111 -40 92 -140 131 -229 89z"/>
<path d="M4492 2599 c-54 -27 -87 -84 -96 -162 -4 -40 -22 -89 -56 -160 -64
-129 -84 -221 -76 -342 6 -108 19 -152 81 -276 42 -83 48 -101 48 -159 0 -58
-6 -76 -50 -165 -64 -128 -78 -180 -78 -286 0 -78 2 -89 28 -122 36 -48 79
-69 137 -69 51 0 93 18 127 54 28 30 39 59 48 133 5 41 22 88 56 155 106 208
106 393 -2 604 -47 91 -52 108 -53 168 0 63 4 76 52 170 74 145 101 293 68
371 -7 18 -26 44 -42 59 -56 52 -122 61 -192 27z"/>
<path d="M5355 2606 c-65 -29 -105 -94 -105 -170 0 -32 -14 -72 -54 -152 -67
-137 -81 -192 -80 -324 1 -121 20 -187 87 -309 39 -70 42 -82 42 -151 0 -69
-3 -81 -42 -151 -54 -98 -80 -176 -88 -271 -6 -68 -5 -82 15 -123 30 -62 82
-96 148 -97 99 0 164 63 177 172 4 35 24 94 56 161 64 135 79 193 79 307 0
120 -11 163 -76 301 -48 100 -54 121 -54 177 0 57 6 76 49 163 114 227 110
401 -12 460 -49 24 -98 26 -142 7z"/>
</g>
</svg>
