<?xml version="1.0" encoding="utf-8"?>
<!DOCTYPE svg PUBLIC "-//W3C//DTD SVG 20010904//EN" "http://www.w3.org/TR/2001/REC-SVG-20010904/DTD/svg10.dtd">
<svg version="1.0" xmlns="http://www.w3.org/2000/svg" width="900pt" height="520pt" viewBox="0 0 900 520" style="" preserveAspectRatio="xMidYMid meet">
<g fill="#000000FF" stroke="#000000FF">
<path d="M 376.186 158.296 C 374.364 158.958 359.455 169.732 343.056 182.237 C 319.890 199.904 312.823 205.814 311.372 208.737 C 309.827 211.851 309.447 215.361 309.171 229.090 C 308.817 246.676 309.568 251.910 313.092 256.389 C 317.563 262.073 319.444 262.457 345.500 263.000 L 369.500 263.500 369.500 281.952 L 369.500 300.404 364.500 300.698 C 361.750 300.860 357.596 301.703 355.268 302.572 C 350.183 304.470 343.442 311.747 342.017 316.877 C 341.400 319.100 341.017 340.795 341.028 373.000 C 341.043 423.688 341.114 425.655 343.084 430.000 C 346.965 438.561 353.364 442.921 363.500 443.913 L 369.500 444.500 370.000 462.500 C 370.573 483.123 371.389 485.565 379.201 490.038 L 383.500 492.500 416.000 492.500 C 447.692 492.500 448.604 492.445 452.666 490.273 C 461.158 485.732 462.940 480.299 462.976 458.829 L 463.000 444.159 476.250 443.630 C 492.040 443.000 489.160 443.000 507.127 443.631 C 516.452 443.958 523.268 443.736 525.933 443.018 C 531.269 441.581 537.730 435.772 540.410 430.000 C 542.426 425.658 542.511 423.767 542.802 376.258 C 542.997 344.428 542.728 324.979 542.040 321.258 C 539.532 307.677 531.290 301.220 516.000 300.856 C 511.325 300.745 506.938 300.459 506.250 300.220 C 505.541 299.974 505.000 298.117 505.000 295.931 C 505.000 293.810 504.074 289.599 502.942 286.574 C 501.176 281.854 499.541 279.917 491.442 272.950 C 486.249 268.483 482.000 264.416 482.000 263.914 C 482.000 263.406 488.188 263.000 495.935 263.000 C 510.908 263.000 513.915 262.355 518.373 258.186 C 523.936 252.985 524.000 252.440 524.000 209.992 C 524.000 172.766 523.905 170.733 521.980 166.961 C 520.869 164.784 518.090 161.764 515.804 160.251 L 511.647 157.500 445.574 157.296 C 396.109 157.143 378.667 157.394 376.186 158.296 M 510.595 171.104 C 512.377 173.072 512.520 175.435 512.816 207.854 C 513.157 245.241 512.790 248.863 508.462 250.835 C 506.718 251.630 497.315 252.000 478.880 252.000 C 454.275 252.000 451.882 252.148 452.177 253.654 C 452.355 254.563 461.040 262.557 471.477 271.417 C 481.914 280.277 491.020 288.645 491.712 290.013 C 492.496 291.562 492.976 296.700 492.985 303.633 L 493.000 314.766 497.250 313.291 C 500.267 312.243 504.547 311.917 512.005 312.165 C 524.501 312.581 528.228 314.418 530.010 321.039 C 530.710 323.636 530.974 341.921 530.785 374.739 C 530.524 420.350 530.353 424.716 528.736 427.096 C 525.913 431.251 522.910 432.000 509.088 432.000 C 497.678 432.000 495.983 431.775 493.663 429.949 L 491.056 427.899 488.218 429.997 C 485.554 431.966 484.333 432.076 468.189 431.797 L 450.997 431.500 450.999 453.795 L 451.000 476.091 448.545 478.545 L 446.091 481.000 416.156 481.000 C 388.183 481.000 386.067 480.875 383.861 479.090 C 381.524 477.199 381.497 476.955 381.197 454.590 L 380.894 432.000 370.347 432.000 L 359.800 432.000 356.438 428.638 L 353.077 425.277 353.062 372.304 L 353.047 319.331 356.019 316.291 C 359.540 312.691 362.399 312.000 373.783 312.000 L 382.316 312.000 381.658 293.840 C 381.296 283.852 381.000 270.372 381.000 263.884 L 381.000 252.089 353.103 251.795 C 327.309 251.522 325.048 251.356 323.103 249.595 C 321.135 247.812 321.000 246.678 321.000 231.927 C 321.000 223.257 321.276 215.445 321.612 214.568 C 322.152 213.162 373.166 173.416 378.450 170.285 C 379.999 169.368 396.162 169.062 444.595 169.035 C 508.493 169.000 508.696 169.006 510.595 171.104 "/></g>
<g fill="#000000FF" stroke="#000000FF">
<path d="M 434.236 19.958 C 429.591 21.090 426.320 23.487 400.176 44.925 C 387.348 55.443 376.468 64.151 375.998 64.275 C 375.528 64.399 374.064 62.475 372.745 60.000 C 371.426 57.525 368.431 54.150 366.089 52.500 L 361.832 49.500 331.166 49.188 C 297.566 48.846 295.194 49.135 289.326 54.287 C 282.083 60.647 282.047 60.890 282.022 103.561 L 282.000 141.622 242.750 173.715 C 221.163 191.366 202.065 207.314 200.311 209.154 C 196.236 213.431 195.000 216.793 195.000 223.605 C 195.000 238.991 210.728 249.404 224.500 243.135 C 226.700 242.134 233.777 236.973 240.226 231.666 L 251.952 222.018 252.226 319.759 L 252.500 417.500 254.691 421.595 C 258.703 429.092 266.331 433.989 274.000 433.989 C 283.337 433.989 292.930 426.219 294.893 417.066 C 295.665 413.461 296.000 377.804 296.000 299.021 L 296.000 186.141 367.039 128.024 C 406.111 96.060 438.632 69.695 439.309 69.435 C 439.986 69.175 461.681 84.721 487.520 103.981 C 513.359 123.241 549.203 149.912 567.174 163.250 L 599.848 187.500 600.174 303.000 L 600.500 418.500 603.277 423.223 C 606.455 428.630 612.848 432.902 618.996 433.726 C 627.656 434.888 637.522 429.464 641.107 421.571 C 642.865 417.700 642.957 412.662 642.978 319.250 C 642.990 265.213 643.277 221.000 643.616 221.000 C 643.955 221.000 650.142 225.387 657.366 230.750 C 664.590 236.112 672.489 241.512 674.919 242.750 C 689.998 250.428 708.153 236.527 704.915 219.783 C 704.460 217.427 704.068 215.178 704.044 214.785 C 703.891 212.286 693.747 203.796 666.134 183.057 C 648.883 170.101 633.808 158.827 632.634 158.004 C 630.373 156.420 569.697 111.249 496.270 56.487 C 471.943 38.344 450.568 22.751 448.770 21.836 C 444.630 19.730 438.448 18.931 434.236 19.958 M 443.196 32.105 C 445.118 33.133 496.918 71.588 582.500 135.519 C 602.300 150.309 620.779 164.006 623.565 165.955 C 626.351 167.905 642.843 180.209 660.213 193.298 C 692.666 217.750 694.978 219.968 693.626 225.354 C 692.513 229.787 689.697 232.167 684.930 232.704 L 680.439 233.211 656.237 215.136 L 632.035 197.061 631.767 306.613 L 631.500 416.164 628.234 419.082 C 623.839 423.009 619.298 423.015 615.106 419.099 L 612.000 416.198 612.000 299.189 L 612.000 182.181 575.250 154.747 C 444.681 57.279 440.264 54.000 439.546 54.000 C 439.249 54.000 422.693 67.334 402.753 83.631 C 382.814 99.928 347.955 128.391 325.288 146.881 L 284.076 180.500 284.038 296.601 C 284.011 378.903 283.677 413.627 282.892 415.881 C 281.105 421.005 274.962 423.307 269.595 420.861 C 263.764 418.205 264.000 423.091 264.000 304.912 L 264.000 196.626 261.250 199.172 C 259.738 200.572 249.817 208.757 239.204 217.359 C 222.534 230.871 219.432 233.000 216.418 233.000 C 211.913 233.000 208.430 230.671 207.060 226.743 C 204.729 220.054 205.072 219.706 251.036 182.098 L 294.000 146.945 294.000 106.609 L 294.000 66.273 296.514 63.759 C 297.897 62.376 300.428 60.964 302.139 60.622 C 303.850 60.280 316.233 60.000 329.657 60.000 C 357.489 60.000 360.059 60.503 362.536 66.432 C 363.474 68.677 364.000 73.361 364.000 79.468 C 364.000 84.711 364.223 89.000 364.494 89.000 C 364.766 89.000 380.404 76.362 399.244 60.915 C 418.085 45.469 434.400 32.448 435.500 31.979 C 438.314 30.780 440.796 30.820 443.196 32.105 "/></g>
<g fill="#000000FF" stroke="#000000FF">
<path d="M 359.306 201.310 L 334.111 220.500 334.056 229.250 L 334.000 238.000 416.500 238.000 L 499.000 238.000 499.000 210.000 L 499.000 182.000 441.750 182.060 L 384.500 182.119 359.306 201.310 "/></g>
<g fill="#000000FF" stroke="#000000FF">
<path d="M 425.614 280.993 C 416.476 288.748 409.000 295.325 409.000 295.607 C 409.000 296.398 416.345 305.000 417.021 305.000 C 417.349 305.000 422.965 300.500 429.500 295.000 C 436.871 288.797 442.239 285.000 443.639 285.000 C 444.882 285.000 448.616 287.263 451.948 290.036 L 458.000 295.073 458.000 357.036 L 458.000 419.000 469.000 419.000 L 480.000 419.000 480.000 357.609 L 480.000 296.218 462.990 281.859 C 453.634 273.962 445.136 267.363 444.104 267.195 C 442.884 266.997 436.417 271.823 425.614 280.993 "/></g>
<g fill="#000000FF" stroke="#000000FF">
<path d="M 429.669 312.398 L 422.838 317.997 422.897 348.435 C 422.930 365.175 423.020 379.238 423.097 379.686 C 423.174 380.134 423.184 390.558 423.118 402.850 L 423.000 425.200 419.600 428.600 L 416.200 432.000 405.600 432.000 L 395.000 432.000 395.000 449.500 L 395.000 467.000 416.006 467.000 L 437.012 467.000 436.756 386.899 L 436.500 306.798 429.669 312.398 M 425.799 448.599 L 425.500 455.500 416.250 455.788 C 406.543 456.089 406.750 456.183 406.750 451.500 C 406.750 444.034 406.563 444.273 412.750 443.811 C 415.913 443.575 419.850 442.695 421.500 441.856 C 423.150 441.017 424.860 440.639 425.299 441.015 C 425.739 441.391 425.964 444.804 425.799 448.599 "/></g>
<g fill="#000000FF" stroke="#000000FF">
<path d="M 502.000 372.500 L 502.000 419.000 509.500 419.000 L 517.000 419.000 517.000 372.500 L 517.000 326.000 509.500 326.000 L 502.000 326.000 502.000 372.500 "/></g>
<g fill="#000000FF" stroke="#000000FF">
<path d="M 313.233 105.528 L 313.500 131.056 328.691 118.778 L 343.883 106.500 343.941 93.250 L 344.000 80.000 328.483 80.000 L 312.966 80.000 313.233 105.528 "/></g>
<g fill="#000000FF" stroke="#000000FF">
<path d="M 395.036 271.250 L 395.072 290.500 397.286 287.905 C 398.504 286.477 408.184 277.815 418.797 268.655 L 438.094 252.000 416.547 252.000 L 395.000 252.000 395.036 271.250 "/></g>
<g fill="#000000FF" stroke="#000000FF">
<path d="M 366.000 359.000 L 366.000 366.000 388.000 366.000 L 410.000 366.000 410.000 359.000 L 410.000 352.000 388.000 352.000 L 366.000 352.000 366.000 359.000 "/></g>
<g fill="#000000FF" stroke="#000000FF">
<path d="M 366.000 412.500 L 366.000 419.000 388.000 419.000 L 410.000 419.000 410.000 412.500 L 410.000 406.000 388.000 406.000 L 366.000 406.000 366.000 412.500 "/></g>
<g fill="#000000FF" stroke="#000000FF">
<path d="M 366.000 385.500 L 366.000 392.000 388.000 392.000 L 410.000 392.000 410.000 385.500 L 410.000 379.000 388.000 379.000 L 366.000 379.000 366.000 385.500 "/></g>
<g fill="#000000FF" stroke="#000000FF">
<path d="M 366.000 332.500 L 366.000 339.000 388.000 339.000 L 410.000 339.000 410.000 332.500 L 410.000 326.000 388.000 326.000 L 366.000 326.000 366.000 332.500 "/></g>
</svg>
