<?xml version="1.0" encoding="utf-8"?>
<!DOCTYPE svg PUBLIC "-//W3C//DTD SVG 20010904//EN" "http://www.w3.org/TR/2001/REC-SVG-20010904/DTD/svg10.dtd">
<svg version="1.0" xmlns="http://www.w3.org/2000/svg" width="900pt" height="520pt" viewBox="0 0 900 520" style="" preserveAspectRatio="xMidYMid meet">
<g fill="#000000FF" stroke="#000000FF">
<path d="M 276.001 81.306 C 273.631 82.115 271.931 83.629 270.730 86.000 C 269.755 87.925 252.060 157.225 231.407 240.000 L 193.857 390.500 194.178 407.500 C 194.542 426.719 195.330 429.169 201.714 430.932 C 205.530 431.985 205.069 432.123 246.558 417.544 L 265.616 410.847 294.988 420.996 C 311.142 426.577 325.599 431.179 327.115 431.222 C 328.631 431.265 343.105 426.700 359.281 421.076 L 388.692 410.851 417.596 420.992 C 433.493 426.569 447.850 431.187 449.500 431.255 C 451.150 431.322 465.726 426.757 481.890 421.109 L 511.280 410.842 540.705 421.071 C 556.888 426.697 571.388 431.265 572.927 431.221 C 574.465 431.177 588.836 426.576 604.862 420.997 L 634.000 410.852 663.138 420.997 C 679.164 426.576 693.577 431.179 695.168 431.224 C 696.758 431.269 699.080 430.760 700.327 430.093 C 704.975 427.605 705.481 425.527 705.822 407.500 L 706.143 390.500 668.593 240.000 C 647.940 157.225 630.245 87.925 629.270 86.000 C 628.069 83.629 626.369 82.115 623.999 81.306 C 618.937 79.580 281.063 79.580 276.001 81.306 M 527.989 282.543 C 539.776 286.691 549.536 290.203 549.679 290.345 C 550.174 290.840 560.261 373.072 559.874 373.459 C 559.661 373.673 549.212 370.282 536.656 365.924 C 524.100 361.566 512.673 358.000 511.262 358.000 C 509.851 358.000 498.373 361.600 485.754 366.000 C 473.136 370.400 462.179 374.000 461.406 374.000 C 460.220 374.000 460.000 367.429 460.000 332.083 L 460.000 290.165 464.250 288.589 C 479.212 283.039 502.822 275.108 504.530 275.059 C 505.646 275.026 516.203 278.394 527.989 282.543 M 416.605 281.911 C 427.547 285.713 437.288 289.136 438.250 289.518 C 439.878 290.165 440.000 293.141 440.000 332.107 C 440.000 367.432 439.780 374.000 438.594 374.000 C 437.821 374.000 426.864 370.400 414.246 366.000 C 401.627 361.600 390.149 358.000 388.738 358.000 C 387.327 358.000 375.900 361.566 363.344 365.924 C 350.788 370.282 340.339 373.673 340.126 373.459 C 339.737 373.070 349.828 290.839 350.326 290.341 C 351.145 289.522 392.853 275.147 394.605 275.080 C 395.763 275.036 405.663 278.110 416.605 281.911 M 307.750 282.201 C 325.151 288.131 329.000 289.778 329.000 291.293 C 329.000 294.215 318.853 374.455 318.428 374.893 C 318.218 375.110 306.884 371.397 293.240 366.643 C 279.597 361.889 267.239 358.000 265.779 358.000 C 264.319 358.000 253.553 361.356 241.854 365.458 C 230.155 369.560 220.353 372.686 220.072 372.406 C 219.575 371.908 239.006 292.577 240.000 291.049 C 240.650 290.050 281.879 275.265 284.500 275.091 C 285.600 275.019 296.063 278.218 307.750 282.201 M 637.848 282.643 C 649.757 286.846 659.725 290.630 660.000 291.052 C 661.026 292.624 680.417 371.916 679.901 372.432 C 679.606 372.727 669.760 369.601 658.022 365.484 C 646.284 361.368 635.514 357.997 634.090 357.994 C 632.665 357.991 620.340 361.869 606.700 366.611 C 593.059 371.353 581.737 375.068 581.540 374.866 C 580.950 374.266 570.604 290.057 571.071 289.658 C 572.075 288.800 612.667 275.102 614.348 275.053 C 615.365 275.024 625.940 278.439 637.848 282.643 M 518.473 187.556 C 528.908 191.162 537.554 194.220 537.685 194.352 C 538.175 194.842 546.932 266.402 546.549 266.785 C 546.329 267.004 537.679 264.244 527.325 260.651 C 516.971 257.059 507.584 253.868 506.464 253.560 C 505.273 253.233 495.343 256.113 482.531 260.501 C 470.488 264.625 460.492 268.000 460.317 268.000 C 460.143 268.000 460.000 251.387 460.000 231.083 L 460.000 194.165 464.250 192.595 C 477.845 187.573 496.712 181.130 498.000 181.070 C 498.825 181.032 508.038 183.951 518.473 187.556 M 414.082 185.015 C 420.362 187.224 428.763 190.194 432.750 191.617 L 440.000 194.203 440.000 231.101 C 440.000 251.396 439.857 268.000 439.683 268.000 C 439.508 268.000 429.512 264.625 417.469 260.501 C 404.657 256.113 394.727 253.233 393.536 253.560 C 392.416 253.868 383.029 257.059 372.675 260.651 C 362.321 264.244 353.671 267.004 353.451 266.785 C 352.802 266.135 362.013 194.528 362.789 194.194 C 366.702 192.509 399.883 181.150 401.082 181.085 C 401.952 181.038 407.802 182.807 414.082 185.015 M 616.000 187.654 C 626.725 191.329 635.659 194.458 635.854 194.605 C 636.496 195.094 653.884 265.449 653.466 265.867 C 653.241 266.093 645.056 263.432 635.278 259.956 C 624.397 256.087 616.142 253.705 614.000 253.815 C 612.075 253.915 601.050 257.316 589.500 261.373 C 577.950 265.429 568.372 268.640 568.216 268.507 C 567.851 268.197 559.022 198.159 559.009 195.476 C 559.001 193.758 561.606 192.524 576.250 187.308 C 585.738 183.929 594.175 181.121 595.000 181.068 C 595.825 181.015 605.275 183.979 616.000 187.654 M 323.250 187.226 C 338.370 192.529 340.999 193.752 340.991 195.476 C 340.978 198.170 332.147 268.203 331.784 268.490 C 331.628 268.614 322.050 265.404 310.500 261.357 C 298.950 257.310 287.925 253.917 286.000 253.817 C 283.855 253.705 275.617 256.082 264.722 259.956 C 254.944 263.432 246.759 266.093 246.534 265.867 C 246.115 265.449 263.504 195.092 264.146 194.607 C 265.080 193.902 302.692 181.122 304.000 181.065 C 304.825 181.029 313.488 183.801 323.250 187.226 M 280.715 384.090 C 288.847 386.890 302.696 391.640 311.491 394.646 L 327.481 400.111 358.094 389.484 L 388.706 378.856 417.603 389.010 C 433.496 394.595 448.075 399.164 450.000 399.164 C 451.925 399.164 466.507 394.594 482.404 389.008 L 511.308 378.851 540.766 389.092 C 556.967 394.725 571.411 399.321 572.862 399.307 C 574.313 399.292 588.658 394.685 604.740 389.069 L 633.979 378.859 659.516 387.680 L 685.053 396.500 684.777 401.623 L 684.500 406.746 660.569 398.373 C 647.406 393.768 635.474 390.000 634.052 390.000 C 632.630 390.000 618.521 394.500 602.699 400.000 C 586.876 405.500 573.344 410.000 572.626 410.000 C 571.909 410.000 558.397 405.500 542.599 400.000 C 526.802 394.500 512.712 390.000 511.289 390.000 C 509.865 390.000 495.785 394.500 480.000 400.000 C 464.215 405.500 450.715 410.000 450.000 410.000 C 449.285 410.000 435.785 405.500 420.000 400.000 C 404.215 394.500 390.135 390.000 388.711 390.000 C 387.288 390.000 373.198 394.500 357.401 400.000 C 341.603 405.500 328.088 410.000 327.366 410.000 C 326.645 410.000 313.069 405.500 297.197 400.000 C 281.325 394.500 267.025 390.024 265.419 390.053 C 263.814 390.082 251.925 393.839 239.000 398.403 L 215.500 406.701 215.222 401.601 L 214.943 396.500 239.722 387.816 C 253.350 383.040 264.822 379.103 265.215 379.066 C 265.608 379.030 272.583 381.291 280.715 384.090 M 526.450 103.250 C 527.494 108.060 534.921 170.412 534.500 170.833 C 534.255 171.078 526.730 168.735 517.777 165.626 C 508.825 162.517 500.105 159.980 498.399 159.987 C 496.694 159.994 487.551 162.700 478.082 166.000 C 468.614 169.300 460.671 172.000 460.433 172.000 C 460.195 172.000 460.000 156.025 460.000 136.500 L 460.000 101.000 492.981 101.000 L 525.962 101.000 526.450 103.250 M 440.000 136.500 C 440.000 156.025 439.805 172.000 439.567 172.000 C 439.329 172.000 431.386 169.300 421.918 166.000 C 412.449 162.700 403.306 159.994 401.601 159.987 C 399.895 159.980 391.175 162.517 382.223 165.626 C 373.270 168.735 365.745 171.078 365.500 170.833 C 365.079 170.412 372.506 108.060 373.550 103.250 L 374.038 101.000 407.019 101.000 L 440.000 101.000 440.000 136.500 M 621.311 135.231 C 626.019 154.058 629.647 169.686 629.373 169.960 C 629.099 170.234 622.041 168.097 613.688 165.212 C 605.334 162.327 597.107 159.974 595.403 159.983 C 593.700 159.992 584.629 162.700 575.245 166.000 C 565.862 169.300 557.713 172.000 557.137 172.000 C 555.810 172.000 555.684 171.217 551.491 137.000 C 549.570 121.325 547.734 106.813 547.411 104.750 L 546.824 101.000 579.787 101.000 L 612.750 101.000 621.311 135.231 M 352.589 104.750 C 352.266 106.813 350.430 121.325 348.509 137.000 C 344.316 171.217 344.190 172.000 342.863 172.000 C 342.287 172.000 334.138 169.300 324.755 166.000 C 315.371 162.700 306.300 159.992 304.597 159.983 C 302.893 159.974 294.666 162.327 286.312 165.212 C 277.959 168.097 270.901 170.234 270.627 169.960 C 270.353 169.686 273.981 154.058 278.689 135.231 L 287.250 101.000 320.213 101.000 L 353.176 101.000 352.589 104.750 "/></g>
</svg>
