<?xml version="1.0" encoding="utf-8"?>
<!DOCTYPE svg PUBLIC "-//W3C//DTD SVG 20010904//EN" "http://www.w3.org/TR/2001/REC-SVG-20010904/DTD/svg10.dtd">
<svg version="1.0" xmlns="http://www.w3.org/2000/svg" width="900pt" height="520pt" viewBox="0 0 900 520" style="" preserveAspectRatio="xMidYMid meet">
<g fill="#000000FF" stroke="#000000FF">
<path d="M 215.000 255.866 L 215.000 460.000 450.000 460.000 L 685.000 460.000 685.000 255.866 L 685.000 51.732 669.750 52.297 C 653.789 52.887 645.817 54.235 632.500 58.597 C 616.729 63.762 598.390 74.307 586.872 84.834 L 581.384 89.850 574.442 85.782 C 559.438 76.990 532.953 66.086 513.238 60.586 C 471.885 49.048 428.115 49.048 386.762 60.586 C 367.012 66.096 340.551 76.994 325.500 85.817 L 318.500 89.921 314.500 86.053 C 303.976 75.878 283.339 63.828 267.500 58.612 C 254.240 54.244 246.242 52.888 230.250 52.297 L 215.000 51.732 215.000 255.866 M 573.000 322.500 L 573.000 441.000 516.500 441.000 L 460.000 441.000 460.000 322.500 L 460.000 204.000 516.500 204.000 L 573.000 204.000 573.000 322.500 M 440.000 322.500 L 440.000 441.000 383.500 441.000 L 327.000 441.000 327.000 322.500 L 327.000 204.000 383.500 204.000 L 440.000 204.000 440.000 322.500 M 665.000 257.000 L 665.000 441.000 629.000 441.000 L 593.000 441.000 593.000 273.652 L 593.000 106.304 598.750 100.849 C 608.615 91.491 622.323 83.563 637.381 78.508 C 644.402 76.151 657.815 73.287 662.750 73.090 L 665.000 73.000 665.000 257.000 M 246.554 74.537 C 267.477 78.186 288.360 88.323 301.750 101.331 L 307.000 106.432 307.000 273.716 L 307.000 441.000 271.000 441.000 L 235.000 441.000 235.000 257.000 C 235.000 101.936 235.215 73.000 236.369 73.000 C 237.122 73.000 241.705 73.692 246.554 74.537 M 440.000 128.500 L 440.000 185.000 383.500 185.000 L 327.000 185.000 327.000 146.572 L 327.000 108.145 332.874 104.576 C 341.358 99.423 361.900 89.754 373.500 85.455 C 391.830 78.662 420.372 72.395 434.250 72.116 L 440.000 72.000 440.000 128.500 M 481.931 74.029 C 511.928 78.923 543.062 90.108 567.250 104.681 L 573.000 108.145 573.000 146.572 L 573.000 185.000 516.500 185.000 L 460.000 185.000 460.000 128.500 L 460.000 72.000 464.750 72.000 C 467.363 72.000 475.094 72.913 481.931 74.029 "/></g>
<g fill="#000000FF" stroke="#000000FF">
<path d="M 246.000 399.000 L 246.000 409.000 271.000 409.000 L 296.000 409.000 296.000 399.000 L 296.000 389.000 271.000 389.000 L 246.000 389.000 246.000 399.000 "/></g>
<g fill="#000000FF" stroke="#000000FF">
<path d="M 604.000 338.000 L 604.000 348.000 629.000 348.000 L 654.000 348.000 654.000 338.000 L 654.000 328.000 629.000 328.000 L 604.000 328.000 604.000 338.000 "/></g>
<g fill="#000000FF" stroke="#000000FF">
<path d="M 246.000 338.000 L 246.000 348.000 271.000 348.000 L 296.000 348.000 296.000 338.000 L 296.000 328.000 271.000 328.000 L 246.000 328.000 246.000 338.000 "/></g>
<g fill="#000000FF" stroke="#000000FF">
<path d="M 604.000 307.000 L 604.000 317.000 629.000 317.000 L 654.000 317.000 654.000 307.000 L 654.000 297.000 629.000 297.000 L 604.000 297.000 604.000 307.000 "/></g>
<g fill="#000000FF" stroke="#000000FF">
<path d="M 246.000 307.000 L 246.000 317.000 271.000 317.000 L 296.000 317.000 296.000 307.000 L 296.000 297.000 271.000 297.000 L 246.000 297.000 246.000 307.000 "/></g>
<g fill="#000000FF" stroke="#000000FF">
<path d="M 604.000 215.000 L 604.000 225.000 629.000 225.000 L 654.000 225.000 654.000 215.000 L 654.000 205.000 629.000 205.000 L 604.000 205.000 604.000 215.000 "/></g>
<g fill="#000000FF" stroke="#000000FF">
<path d="M 246.000 215.000 L 246.000 225.000 271.000 225.000 L 296.000 225.000 296.000 215.000 L 296.000 205.000 271.000 205.000 L 246.000 205.000 246.000 215.000 "/></g>
<g fill="#000000FF" stroke="#000000FF">
<path d="M 604.000 123.000 L 604.000 133.000 629.000 133.000 L 654.000 133.000 654.000 123.000 L 654.000 113.000 629.000 113.000 L 604.000 113.000 604.000 123.000 "/></g>
<g fill="#000000FF" stroke="#000000FF">
<path d="M 246.000 123.000 L 246.000 133.000 271.000 133.000 L 296.000 133.000 296.000 123.000 L 296.000 113.000 271.000 113.000 L 246.000 113.000 246.000 123.000 "/></g>
<g fill="#000000FF" stroke="#000000FF">
<path d="M 246.000 184.043 L 246.000 194.000 271.000 194.000 L 296.000 194.000 296.000 183.994 L 296.000 173.988 271.000 174.037 L 246.000 174.086 246.000 184.043 "/></g>
<g fill="#000000FF" stroke="#000000FF">
<path d="M 604.622 389.711 C 604.280 390.053 604.000 394.533 604.000 399.667 L 604.000 409.000 629.000 409.000 L 654.000 409.000 654.000 399.030 L 654.000 389.059 629.622 389.074 C 616.215 389.082 604.965 389.369 604.622 389.711 "/></g>
<g fill="#000000FF" stroke="#000000FF">
<path d="M 604.614 174.720 C 604.276 175.057 604.000 179.533 604.000 184.667 L 604.000 194.000 629.000 194.000 L 654.000 194.000 654.000 184.085 L 654.000 174.169 629.614 174.138 C 616.201 174.120 604.951 174.382 604.614 174.720 "/></g>
<g fill="#000000FF" stroke="#000000FF">
<path d="M 604.000 368.500 L 604.000 378.000 629.000 378.000 L 654.000 378.000 654.000 368.500 L 654.000 359.000 629.000 359.000 L 604.000 359.000 604.000 368.500 "/></g>
<g fill="#000000FF" stroke="#000000FF">
<path d="M 246.000 368.500 L 246.000 378.000 271.000 378.000 L 296.000 378.000 296.000 368.500 L 296.000 359.000 271.000 359.000 L 246.000 359.000 246.000 368.500 "/></g>
<g fill="#000000FF" stroke="#000000FF">
<path d="M 604.000 153.500 L 604.000 163.000 629.000 163.000 L 654.000 163.000 654.000 153.500 L 654.000 144.000 629.000 144.000 L 604.000 144.000 604.000 153.500 "/></g>
<g fill="#000000FF" stroke="#000000FF">
<path d="M 246.000 153.500 L 246.000 163.000 271.000 163.000 L 296.000 163.000 296.000 153.500 L 296.000 144.000 271.000 144.000 L 246.000 144.000 246.000 153.500 "/></g>
</svg>
