<svg width="25" height="25" viewBox="0 0 25 25" fill="none" xmlns="http://www.w3.org/2000/svg">
<path fill-rule="evenodd" clip-rule="evenodd" d="M12.5 25C19.4036 25 25 19.4036 25 12.5C25 5.59644 19.4036 0 12.5 0C5.59644 0 0 5.59644 0 12.5C0 19.4036 5.59644 25 12.5 25ZM5 8.31836C5 7.59361 5.58995 7 6.31836 7H18.6816C19.4124 7 20 7.5949 20 8.31836V16.2285C20 16.9601 19.404 17.5469 18.6816 17.5469H6.31836C5.59429 17.5469 5 16.9576 5 16.2285V8.31836ZM13.4322 12.917L18.497 7.87891H6.50299L11.567 12.9162C11.8168 13.166 12.1479 13.3031 12.5 13.3031C12.8521 13.3031 13.1832 13.166 13.4322 12.917ZM5.87891 8.4978V16.0496L9.67689 12.2758L5.87891 8.4978ZM10.3 12.8956L6.50354 16.668H18.4965L14.7 12.8956L14.0529 13.5393C13.6387 13.9535 13.0869 14.182 12.5 14.182C11.9131 14.182 11.3613 13.9535 10.9463 13.5385L10.3 12.8956ZM15.3231 12.2758L19.1211 16.0496V8.4978L15.3231 12.2758Z" fill="#66CC99"/>
</svg>
