<svg width="25" height="25" viewBox="0 0 25 25" fill="none" xmlns="http://www.w3.org/2000/svg">
<path fill-rule="evenodd" clip-rule="evenodd" d="M12.5 25C19.4036 25 25 19.4036 25 12.5C25 5.59644 19.4036 0 12.5 0C5.59644 0 0 5.59644 0 12.5C0 19.4036 5.59644 25 12.5 25ZM6 10.1567C6 6.76191 8.91588 4 12.5 4C16.0841 4 18.9999 6.76191 19 10.1567C19 14.3698 13.1831 20.5549 12.9355 20.8161C12.7033 21.0611 12.2971 21.0615 12.0645 20.8161C11.8169 20.5549 6 14.3698 6 10.1567ZM9.22972 10.1567C9.22972 11.8648 10.6967 13.2544 12.5 13.2544C14.3032 13.2544 15.7702 11.8648 15.7702 10.1568C15.7702 8.44873 14.3032 7.05914 12.5 7.05914C10.6968 7.05914 9.22972 8.44869 9.22972 10.1567Z" fill="#66CC99"/>
</svg>
