<svg width="26" height="26" viewBox="0 0 26 26" fill="none" xmlns="http://www.w3.org/2000/svg">
<path fill-rule="evenodd" clip-rule="evenodd" d="M13 26C20.1797 26 26 20.1797 26 13C26 5.8203 20.1797 0 13 0C5.8203 0 0 5.8203 0 13C0 20.1797 5.8203 26 13 26ZM20.6522 17.4L20.7298 17.6339C20.9117 18.1805 20.7278 18.9601 20.3211 19.3666L19.2116 20.4762C19.0134 20.6734 18.4331 20.7981 18.4147 20.7981C14.9022 20.8277 11.5209 19.4484 9.03515 16.9627C6.5433 14.4708 5.16199 11.0768 5.2008 7.55404C5.2008 7.55198 5.32748 6.98801 5.52571 6.79084L6.63527 5.68026C7.04188 5.27365 7.82143 5.08972 8.36803 5.27159L8.60199 5.35025C9.14755 5.53213 9.71867 6.1349 9.86988 6.68968L10.4287 8.7402C10.58 9.29599 10.3767 10.0878 9.97002 10.4944L9.22824 11.2362C9.95567 13.9314 12.0695 16.0453 14.7652 16.7737L15.507 16.0319C15.9136 15.6253 16.7064 15.422 17.2622 15.5732L19.3117 16.1331C19.8655 16.2833 20.4683 16.8534 20.6522 17.4Z" fill="#66CC99"/>
</svg>
