<svg width="45" height="45" viewBox="0 0 45 45" fill="none" xmlns="http://www.w3.org/2000/svg">
<path fill-rule="evenodd" clip-rule="evenodd" d="M-9.83506e-07 22.5C-1.52668e-06 34.9264 10.0736 45 22.5 45C34.9264 45 45 34.9264 45 22.5C45 10.0736 34.9264 -4.40331e-07 22.5 -9.83506e-07C10.0736 -1.52668e-06 -4.40331e-07 10.0736 -9.83506e-07 22.5ZM31.9393 25.6673C32.5251 26.2531 33.4749 26.2531 34.0607 25.6673C34.6464 25.0816 34.6464 24.1318 34.0607 23.546L23.8076 13.293C23.0266 12.5119 21.7602 12.5119 20.9792 13.293L10.7261 23.546C10.1403 24.1318 10.1403 25.0816 10.7261 25.6673C11.3119 26.2531 12.2617 26.2531 12.8475 25.6673L22.3934 16.1214L31.9393 25.6673Z" fill="white"/>
</svg>
