<svg width="25" height="25" viewBox="0 0 25 25" fill="none" xmlns="http://www.w3.org/2000/svg">
<path fill-rule="evenodd" clip-rule="evenodd" d="M12.5 25C19.4036 25 25 19.4036 25 12.5C25 5.59644 19.4036 0 12.5 0C5.59644 0 0 5.59644 0 12.5C0 19.4036 5.59644 25 12.5 25ZM19.6103 7.5903C19.7949 8.0651 19.9238 8.61303 19.9589 9.41004C19.9941 10.21 19.9971 10.4649 19.9971 12.5015C19.9971 14.538 19.9882 14.7929 19.9531 15.5929C19.918 16.3899 19.789 16.935 19.6045 17.4126C19.2147 18.4206 18.4177 19.2176 17.4096 19.6073C16.9349 19.792 16.387 19.9209 15.59 19.956C14.79 19.9913 14.5351 20 12.4986 20C10.4621 20 10.207 19.9913 9.40717 19.956C8.61005 19.9209 8.06509 19.792 7.58744 19.6073C7.08929 19.4199 6.6351 19.1239 6.26001 18.7429C5.87908 18.3678 5.58319 17.9166 5.39272 17.4126C5.20809 16.9378 5.07909 16.3899 5.04395 15.5929C5.00881 14.7929 5 14.538 5 12.5015C5 10.4649 5.00881 10.21 5.04693 9.40707C5.08207 8.61006 5.21096 8.0651 5.39558 7.58744C5.58319 7.0893 5.87908 6.63511 6.26001 6.26001C6.6351 5.8761 7.08632 5.58308 7.59041 5.39261C8.06509 5.20809 8.61303 5.07909 9.41003 5.04395C10.21 5.00881 10.4649 5 12.5014 5C14.538 5 14.7929 5.00881 15.5958 5.04693C16.3928 5.08207 16.9379 5.21096 17.4155 5.39559C17.9136 5.58308 18.3678 5.87908 18.7429 6.26001C19.1268 6.63511 19.4198 7.08632 19.6103 7.5903ZM18.3503 16.9262C18.4528 16.6624 18.5759 16.2668 18.6082 15.5343C18.6433 14.7431 18.6521 14.5087 18.6521 12.5073C18.6521 10.5059 18.6433 10.2686 18.6082 9.47746C18.5759 8.74776 18.4528 8.34931 18.3503 8.08559C18.2301 7.76028 18.0396 7.46726 17.7906 7.22402C17.5503 6.97495 17.2543 6.78448 16.9291 6.66441C16.6654 6.56185 16.2698 6.4388 15.5372 6.40652C14.7489 6.37138 14.5116 6.36257 12.5073 6.36257C10.506 6.36257 10.2686 6.37138 9.47745 6.40652C8.74786 6.4388 8.3493 6.56185 8.08558 6.66441C7.76028 6.78448 7.46725 6.97495 7.22413 7.22402C6.97208 7.46439 6.78162 7.76028 6.66143 8.08559C6.55887 8.34931 6.43582 8.74489 6.40366 9.47746C6.36841 10.2657 6.35971 10.5059 6.35971 12.5073C6.35971 14.5087 6.36841 14.7461 6.40366 15.5373C6.43582 16.2668 6.55887 16.6654 6.66143 16.9291C6.78162 17.2543 6.97208 17.5473 7.22116 17.7906C7.46141 18.0397 7.75741 18.2301 8.0826 18.3503C8.34633 18.4529 8.74191 18.5759 9.47447 18.6081C10.2628 18.6433 10.503 18.652 12.5044 18.652C14.5058 18.652 14.7431 18.6433 15.5343 18.6081C16.264 18.5759 16.6624 18.4529 16.9261 18.3503C17.5796 18.0983 18.0982 17.5796 18.3503 16.9262ZM12.5015 8.64819C10.3742 8.64819 8.64819 10.3741 8.64819 12.5015C8.64819 14.6289 10.3742 16.3548 12.5015 16.3548C14.6289 16.3548 16.3548 14.6289 16.3548 12.5015C16.3548 10.3741 14.6289 8.64819 12.5015 8.64819ZM12.5015 15.001C11.1214 15.001 10.002 13.8817 10.002 12.5015C10.002 11.1213 11.1214 10.002 12.5015 10.002C13.8817 10.002 15.001 11.1213 15.001 12.5015C15.001 13.8817 13.8817 15.001 12.5015 15.001ZM16.507 9.39533C17.0039 9.39533 17.4067 8.99253 17.4067 8.49576C17.4067 7.99888 17.0039 7.59619 16.507 7.59619C16.0102 7.59619 15.6074 7.99888 15.6074 8.49576C15.6074 8.99253 16.0102 9.39533 16.507 9.39533Z" fill="white"/>
</svg>
