<?xml version="1.0" encoding="utf-8"?>
<!DOCTYPE svg PUBLIC "-//W3C//DTD SVG 20010904//EN" "http://www.w3.org/TR/2001/REC-SVG-20010904/DTD/svg10.dtd">
<svg version="1.0" xmlns="http://www.w3.org/2000/svg" width="900pt" height="520pt" viewBox="0 0 900 520" style="" preserveAspectRatio="xMidYMid meet">
<g fill="#000000FF" stroke="#000000FF">
<path d="M 402.000 300.000 L 402.000 432.000 462.000 432.000 L 522.000 432.000 522.000 300.000 L 522.000 168.000 462.000 168.000 L 402.000 168.000 402.000 300.000 M 510.141 269.785 C 513.631 273.527 514.000 274.438 514.000 279.313 C 514.000 288.930 507.128 295.581 498.136 294.665 C 483.797 293.204 479.227 275.333 491.102 267.161 C 493.959 265.196 495.438 264.889 500.391 265.235 C 505.780 265.613 506.610 266.000 510.141 269.785 "/></g>
<g fill="#000000FF" stroke="#000000FF">
<path d="M 586.000 280.000 L 586.000 432.000 614.000 432.000 L 642.000 432.000 642.000 280.000 L 642.000 128.000 614.000 128.000 L 586.000 128.000 586.000 280.000 "/></g>
<g fill="#000000FF" stroke="#000000FF">
<path d="M 290.000 280.000 L 290.000 432.000 318.000 432.000 L 346.000 432.000 346.000 280.000 L 346.000 128.000 318.000 128.000 L 290.000 128.000 290.000 280.000 "/></g>
<g fill="#000000FF" stroke="#000000FF">
<path d="M 288.409 75.250 C 281.309 85.838 275.350 94.839 275.166 95.253 C 274.982 95.667 359.241 95.892 462.409 95.753 L 649.986 95.500 636.838 75.750 L 623.691 56.000 462.505 56.000 L 301.318 56.000 288.409 75.250 "/></g>
<g fill="#000000FF" stroke="#000000FF">
<path d="M 537.805 156.091 L 530.111 162.500 530.055 297.250 L 530.000 432.000 538.003 432.000 L 546.007 432.000 545.753 290.841 L 545.500 149.682 537.805 156.091 "/></g>
<g fill="#000000FF" stroke="#000000FF">
<path d="M 378.000 292.000 L 378.000 432.000 386.000 432.000 L 394.000 432.000 394.000 298.228 L 394.000 164.455 386.537 158.228 C 382.433 154.802 378.833 152.000 378.537 152.000 C 378.242 152.000 378.000 215.000 378.000 292.000 "/></g>
<g fill="#000000FF" stroke="#000000FF">
<path d="M 384.000 144.377 C 384.000 144.585 388.221 148.185 393.381 152.377 L 402.762 160.000 461.763 160.000 L 520.765 160.000 524.632 156.218 C 526.760 154.137 530.750 150.540 533.500 148.224 L 538.500 144.013 461.250 144.006 C 418.763 144.003 384.000 144.170 384.000 144.377 "/></g>
<g fill="#000000FF" stroke="#000000FF">
<path d="M 278.017 105.286 C 274.834 106.896 273.299 111.105 274.574 114.729 C 276.368 119.831 277.525 119.971 318.000 119.971 C 357.597 119.971 359.462 119.771 361.073 115.359 C 362.313 111.963 359.146 106.720 355.000 105.306 C 349.898 103.567 281.451 103.548 278.017 105.286 "/></g>
<g fill="#000000FF" stroke="#000000FF">
<path d="M 574.017 441.286 C 570.834 442.896 569.299 447.105 570.574 450.729 C 572.368 455.831 573.525 455.971 614.000 455.971 C 655.564 455.971 656.266 455.875 656.819 450.156 C 657.248 445.707 654.806 442.318 650.259 441.055 C 644.546 439.468 577.206 439.672 574.017 441.286 "/></g>
<g fill="#000000FF" stroke="#000000FF">
<path d="M 278.017 441.286 C 274.834 442.896 273.299 447.105 274.574 450.729 C 276.368 455.831 277.525 455.971 318.000 455.971 C 359.564 455.971 360.266 455.875 360.819 450.156 C 361.248 445.707 358.806 442.318 354.259 441.055 C 348.546 439.468 281.206 439.672 278.017 441.286 "/></g>
<g fill="#000000FF" stroke="#000000FF">
<path d="M 574.017 105.286 C 570.834 106.896 569.299 111.105 570.574 114.729 C 572.368 119.831 573.525 119.971 614.000 119.971 C 655.564 119.971 656.266 119.875 656.819 114.156 C 657.248 109.707 654.806 106.318 650.259 105.055 C 644.546 103.468 577.206 103.672 574.017 105.286 "/></g>
<g fill="#000000FF" stroke="#000000FF">
<path d="M 498.000 273.793 C 493.041 275.340 491.519 280.519 495.000 284.000 C 497.545 286.545 501.184 286.559 503.470 284.033 C 507.694 279.365 503.758 271.998 498.000 273.793 "/></g>
</svg>
