<?xml version="1.0" encoding="utf-8"?>
<!DOCTYPE svg PUBLIC "-//W3C//DTD SVG 20010904//EN" "http://www.w3.org/TR/2001/REC-SVG-20010904/DTD/svg10.dtd">
<svg version="1.0" xmlns="http://www.w3.org/2000/svg" width="900pt" height="480pt" viewBox="0 0 900 480" style="" preserveAspectRatio="xMidYMid meet">
<g fill="#222220FF" stroke="#222220FF">
<path d="M 437.500 4.129 C 433.100 6.366 425.675 10.340 421.000 12.962 C 416.325 15.583 409.670 19.154 406.212 20.898 C 402.311 22.864 400.187 24.493 400.616 25.188 C 401.040 25.873 400.857 26.030 400.146 25.590 C 399.498 25.190 390.916 29.183 380.742 34.620 C 370.709 39.981 359.350 46.023 355.500 48.047 C 337.405 57.558 317.403 68.278 316.500 68.947 C 315.950 69.355 309.875 72.639 303.000 76.245 C 288.497 83.852 281.292 87.922 282.000 88.106 C 282.275 88.178 282.118 88.169 281.651 88.085 C 280.919 87.955 274.133 91.446 257.500 100.509 C 255.300 101.708 249.195 104.995 243.933 107.814 C 235.448 112.359 229.485 116.770 231.345 117.125 C 231.705 117.194 231.534 117.306 230.964 117.375 C 227.340 117.812 226.894 128.063 230.280 133.087 C 232.770 136.783 239.728 141.259 241.802 140.500 C 242.595 140.209 242.824 140.476 242.388 141.181 C 241.905 141.962 242.231 142.125 243.388 141.681 C 244.332 141.319 244.859 141.420 244.559 141.905 C 243.805 143.125 287.756 166.269 289.169 165.396 C 289.812 164.998 290.037 165.131 289.684 165.702 C 289.128 166.601 295.607 170.445 315.500 181.018 C 318.800 182.772 325.171 186.199 329.658 188.634 C 334.145 191.069 338.195 192.994 338.658 192.912 C 339.121 192.830 339.275 192.825 339.000 192.900 C 338.425 193.057 345.029 196.771 360.000 204.709 C 365.775 207.771 371.850 211.061 373.500 212.020 C 383.734 217.971 398.264 224.955 399.202 224.375 C 399.922 223.930 400.022 224.155 399.490 225.015 C 398.891 225.985 399.132 226.164 400.388 225.681 C 401.372 225.304 401.853 225.429 401.515 225.976 C 400.745 227.222 410.737 232.281 412.192 231.381 C 412.828 230.988 413.031 231.140 412.665 231.733 C 411.718 233.266 445.884 251.000 449.783 251.000 C 453.681 251.000 458.145 249.043 457.314 247.699 C 456.958 247.123 457.191 247.000 457.858 247.412 C 459.475 248.411 488.227 233.177 487.364 231.779 C 486.957 231.121 487.156 230.979 487.869 231.419 C 488.526 231.825 493.348 229.834 498.774 226.915 C 504.123 224.037 510.975 220.347 514.000 218.715 C 528.903 210.673 536.299 206.717 545.000 202.134 C 550.225 199.382 554.500 196.784 554.500 196.361 C 554.500 195.938 555.240 195.538 556.143 195.471 C 557.047 195.404 565.147 191.392 574.143 186.556 C 629.909 156.572 638.931 151.597 638.435 151.102 C 638.133 150.799 638.924 150.540 640.193 150.526 C 641.462 150.512 642.393 149.954 642.262 149.286 C 642.131 148.618 642.581 148.280 643.262 148.534 C 643.943 148.788 649.666 146.184 655.981 142.748 C 669.224 135.540 672.009 132.470 671.985 125.102 C 671.969 120.412 670.896 117.599 669.036 117.375 C 668.466 117.306 668.295 117.194 668.655 117.125 C 669.015 117.056 668.483 116.086 667.471 114.968 C 665.500 112.790 661.006 110.131 646.000 102.264 C 640.775 99.524 632.609 95.179 627.854 92.607 C 623.098 90.035 618.823 88.000 618.354 88.084 C 617.884 88.168 617.725 88.178 618.000 88.105 C 618.275 88.033 615.228 86.159 611.229 83.941 C 607.229 81.723 603.447 80.224 602.824 80.609 C 602.183 81.005 601.965 80.866 602.321 80.290 C 603.126 78.987 587.326 70.680 585.817 71.613 C 585.183 72.005 584.966 71.864 585.320 71.291 C 585.679 70.710 575.109 64.450 560.725 56.724 C 496.716 22.345 476.799 12.006 475.785 12.633 C 475.079 13.069 474.981 12.840 475.510 11.985 C 476.109 11.015 475.868 10.836 474.612 11.319 C 473.622 11.699 473.147 11.572 473.489 11.018 C 473.815 10.491 469.571 7.796 464.059 5.030 C 451.326 -1.360 448.489 -1.456 437.500 4.129 M 458.112 34.863 C 462.175 36.988 469.521 40.894 474.436 43.544 C 479.351 46.194 484.301 48.468 485.436 48.598 C 486.571 48.727 487.050 48.876 486.500 48.929 C 484.867 49.084 505.905 60.614 561.000 89.757 C 566.775 92.812 579.150 99.449 588.500 104.507 C 618.914 120.957 624.897 124.033 625.961 123.764 C 626.561 123.613 626.473 124.203 625.754 125.146 C 624.667 126.572 612.603 133.184 569.000 156.247 C 563.775 159.010 548.475 167.224 534.999 174.499 C 521.524 181.774 506.674 189.749 501.999 192.221 C 497.325 194.693 487.051 200.172 479.170 204.397 C 450.054 220.001 447.515 221.323 448.258 220.496 C 449.067 219.594 447.069 218.411 423.000 205.547 C 414.475 200.990 404.125 195.452 400.000 193.240 C 391.059 188.445 374.098 179.366 341.276 161.808 C 327.403 154.386 316.548 149.161 315.872 149.579 C 315.191 150.000 314.955 149.881 315.315 149.299 C 315.667 148.730 307.106 143.597 295.720 137.550 C 284.599 131.643 274.936 126.066 274.246 125.155 C 273.447 124.101 273.391 123.602 274.090 123.781 C 275.870 124.237 303.959 108.743 303.296 107.671 C 302.963 107.132 303.190 106.999 303.800 107.376 C 304.409 107.753 313.591 103.401 324.204 97.705 C 334.817 92.008 344.316 87.048 345.313 86.681 C 346.364 86.295 346.825 85.525 346.409 84.853 C 345.960 84.127 346.128 83.961 346.856 84.411 C 347.876 85.041 372.447 72.379 403.000 55.478 C 408.225 52.588 416.230 48.359 420.790 46.080 C 425.349 43.802 428.813 41.507 428.488 40.980 C 428.162 40.454 428.482 40.231 429.198 40.485 C 429.914 40.739 434.550 38.733 439.500 36.027 C 444.450 33.322 449.000 31.084 449.612 31.054 C 450.223 31.024 454.048 32.738 458.112 34.863 "/></g>
<g fill="#222220FF" stroke="#222220FF">
<path d="M 300.028 189.735 C 297.373 190.232 292.915 192.945 294.527 193.083 C 295.062 193.129 294.557 193.274 293.405 193.405 C 289.952 193.797 263.973 208.148 264.671 209.277 C 265.039 209.873 264.821 210.007 264.155 209.596 C 262.628 208.652 250.857 214.959 251.675 216.283 C 252.039 216.873 251.818 217.006 251.155 216.596 C 249.749 215.727 237.824 221.907 238.572 223.117 C 238.865 223.590 238.332 223.681 237.388 223.319 C 236.231 222.875 235.905 223.038 236.388 223.819 C 236.841 224.552 236.584 224.777 235.687 224.433 C 233.991 223.783 229.268 229.082 228.376 232.637 C 227.443 236.356 228.600 242.900 230.576 245.084 C 231.536 246.144 232.586 246.747 232.911 246.423 C 233.235 246.099 233.500 246.423 233.500 247.143 C 233.500 248.276 243.742 253.983 290.500 278.905 C 295.450 281.544 303.391 285.810 308.146 288.386 C 312.902 290.962 317.177 293.000 317.646 292.916 C 318.116 292.832 318.275 292.822 318.000 292.894 C 317.279 293.082 324.204 296.982 343.289 307.136 C 352.524 312.050 360.581 315.759 361.194 315.380 C 361.814 314.997 362.032 315.140 361.684 315.703 C 361.340 316.259 363.183 317.844 365.779 319.226 C 368.376 320.607 378.278 325.905 387.785 331.000 C 397.292 336.094 405.392 339.941 405.785 339.548 C 406.178 339.155 406.500 339.372 406.500 340.031 C 406.500 340.690 410.550 343.338 415.500 345.916 C 420.450 348.494 429.395 353.168 435.377 356.302 C 448.465 363.158 451.154 363.414 460.167 358.659 C 463.650 356.822 471.900 352.481 478.500 349.013 C 485.100 345.545 495.675 339.900 502.000 336.469 C 518.478 327.529 542.720 314.578 555.500 307.888 C 561.550 304.721 566.500 301.613 566.500 300.981 C 566.500 300.350 566.807 300.140 567.182 300.516 C 568.197 301.531 578.045 295.882 577.316 294.703 C 576.969 294.141 577.185 293.996 577.803 294.378 C 578.414 294.756 582.421 293.288 586.707 291.116 C 596.390 286.209 612.673 277.046 612.000 276.884 C 611.725 276.817 611.853 276.822 612.285 276.893 C 612.717 276.965 621.717 272.351 632.285 266.640 C 642.853 260.929 654.650 254.666 658.500 252.724 C 668.211 247.823 671.221 244.428 671.755 237.772 C 672.355 230.293 669.716 226.780 658.967 220.750 C 654.310 218.137 649.914 216.220 649.198 216.488 C 648.403 216.787 648.175 216.526 648.612 215.819 C 649.095 215.038 648.769 214.875 647.612 215.319 C 646.668 215.681 646.136 215.589 646.429 215.114 C 646.723 214.640 637.183 208.958 625.231 202.488 C 606.456 192.325 602.729 190.660 597.834 190.248 C 592.348 189.787 592.032 189.898 587.929 193.725 C 584.148 197.252 583.644 198.261 583.257 203.089 C 582.583 211.472 584.787 213.904 601.000 222.674 C 608.425 226.691 615.086 229.762 615.802 229.500 C 616.518 229.238 616.841 229.448 616.520 229.967 C 616.199 230.487 618.475 232.112 621.577 233.580 C 628.032 236.634 628.375 236.109 615.710 242.574 C 610.168 245.402 607.176 247.476 607.614 248.185 C 608.042 248.878 607.858 249.030 607.134 248.583 C 606.476 248.176 600.791 250.619 594.229 254.129 C 587.778 257.579 578.000 262.758 572.500 265.639 C 567.000 268.519 562.500 271.391 562.500 272.021 C 562.500 272.651 562.200 272.867 561.833 272.500 C 561.466 272.133 551.896 276.820 540.566 282.916 C 529.236 289.012 519.789 294.000 519.573 294.000 C 519.356 294.000 516.101 295.723 512.340 297.828 C 508.578 299.933 496.391 306.506 485.257 312.434 C 473.302 318.799 465.279 323.642 465.661 324.261 C 466.045 324.881 465.826 325.011 465.126 324.578 C 464.474 324.175 461.027 325.451 457.438 327.424 C 453.859 329.391 450.584 331.000 450.159 331.000 C 449.734 331.000 441.762 326.896 432.444 321.880 C 417.606 313.895 404.237 306.753 376.197 291.833 C 372.181 289.696 368.399 288.254 367.793 288.628 C 367.078 289.070 366.979 288.843 367.510 287.985 C 368.109 287.015 367.868 286.836 366.612 287.319 C 365.668 287.681 365.112 287.629 365.375 287.203 C 365.826 286.472 352.931 279.202 323.714 263.717 C 316.675 259.986 310.415 257.243 309.803 257.622 C 309.180 258.007 308.969 257.859 309.323 257.286 C 309.684 256.702 302.028 252.076 291.441 246.482 L 272.927 236.701 276.714 234.501 C 278.796 233.291 287.126 228.839 295.225 224.607 C 303.324 220.375 311.282 215.792 312.909 214.424 C 318.914 209.370 319.331 200.725 313.868 194.503 C 311.376 191.664 305.133 188.585 303.000 189.142 C 302.725 189.214 301.388 189.480 300.028 189.735 "/></g>
<g fill="#222220FF" stroke="#222220FF">
<path d="M 291.184 304.990 C 287.077 306.933 285.120 308.385 285.589 309.143 C 286.021 309.843 285.875 310.041 285.223 309.638 C 284.271 309.049 275.609 313.424 241.028 331.959 C 230.257 337.732 227.636 341.190 228.249 348.822 C 228.606 353.264 229.240 354.696 232.088 357.491 C 235.261 360.604 253.920 371.197 255.703 370.897 C 256.141 370.823 256.275 370.818 256.000 370.885 C 255.270 371.064 260.194 373.949 271.297 379.852 C 276.686 382.716 281.593 384.752 282.202 384.375 C 282.811 383.999 283.035 384.135 282.699 384.678 C 282.364 385.221 284.881 387.152 288.295 388.969 C 291.708 390.786 296.750 393.505 299.500 395.010 C 322.309 407.496 341.229 416.977 342.173 416.393 C 342.858 415.970 343.034 416.136 342.616 416.812 C 341.974 417.850 352.838 424.194 354.733 423.887 C 355.155 423.819 355.275 423.818 355.000 423.885 C 354.175 424.087 359.901 427.368 377.882 436.995 C 387.509 442.149 395.476 445.824 396.136 445.416 C 396.872 444.961 397.041 445.124 396.591 445.853 C 396.176 446.525 396.637 447.300 397.687 447.694 C 398.684 448.067 404.784 451.215 411.242 454.689 C 417.700 458.163 423.325 460.951 423.742 460.884 C 424.159 460.818 424.278 460.816 424.007 460.882 C 423.735 460.947 428.010 463.552 433.507 466.672 C 441.575 471.251 444.585 472.429 449.132 472.784 C 454.437 473.198 455.316 472.915 464.309 467.899 C 469.559 464.970 473.593 462.151 473.273 461.633 C 472.953 461.115 473.215 461.015 473.855 461.410 C 474.495 461.806 478.277 460.358 482.259 458.192 C 486.242 456.026 494.450 451.657 500.500 448.483 C 506.550 445.308 517.125 439.684 524.000 435.983 C 540.559 427.071 576.174 408.009 602.000 394.236 C 615.730 386.914 632.342 377.988 634.500 376.773 C 635.600 376.154 643.033 372.148 651.018 367.870 C 668.542 358.483 671.170 356.063 671.755 348.772 C 672.379 340.992 669.796 337.746 657.977 331.457 C 652.765 328.684 641.975 322.866 634.000 318.529 C 604.751 302.623 603.584 302.059 599.832 302.029 C 595.465 301.994 592.802 302.871 593.558 304.093 C 593.858 304.579 593.466 304.732 592.687 304.433 C 590.991 303.783 586.268 309.082 585.376 312.637 C 584.227 317.217 585.684 323.150 588.676 326.069 C 591.836 329.152 621.317 345.237 624.474 345.600 C 625.588 345.728 626.050 345.878 625.500 345.932 C 624.950 345.986 625.135 346.432 625.910 346.923 C 626.947 347.580 625.092 348.965 618.910 352.149 C 614.285 354.532 609.150 357.256 607.500 358.203 C 605.850 359.149 603.019 360.629 601.210 361.492 C 599.245 362.429 598.199 363.513 598.614 364.185 C 599.029 364.856 598.860 365.032 598.196 364.621 C 597.014 363.891 587.251 368.497 577.428 374.420 C 574.168 376.386 571.950 378.034 572.500 378.081 C 573.050 378.128 572.600 378.273 571.500 378.402 C 570.400 378.531 558.925 384.282 546.000 391.181 C 533.075 398.080 517.210 406.525 510.744 409.948 C 503.716 413.670 499.254 416.602 499.649 417.241 C 500.047 417.885 499.834 418.016 499.112 417.569 C 498.419 417.141 491.713 420.192 483.207 424.806 C 475.118 429.193 464.331 434.969 459.237 437.641 L 449.973 442.500 444.237 439.508 C 441.081 437.863 433.672 433.893 427.770 430.687 C 421.775 427.429 416.522 425.177 415.866 425.583 C 415.186 426.003 414.957 425.879 415.321 425.289 C 416.144 423.957 359.385 393.644 357.847 394.595 C 357.200 394.995 356.960 394.874 357.302 394.321 C 358.008 393.179 316.147 370.520 315.157 371.509 C 314.796 371.871 314.500 371.645 314.500 371.008 C 314.500 370.370 310.000 367.500 304.500 364.629 C 299.000 361.759 292.025 358.025 289.000 356.332 C 285.975 354.639 281.068 352.029 278.096 350.532 L 272.693 347.811 282.096 342.826 C 287.268 340.084 295.325 335.817 300.000 333.343 C 310.011 328.046 311.819 326.580 313.638 322.282 C 316.660 315.141 313.609 307.088 306.691 303.947 C 300.970 301.349 298.532 301.513 291.184 304.990 "/></g>
</svg>
