<?xml version="1.0" standalone="no"?>
<!DOCTYPE svg PUBLIC "-//W3C//DTD SVG 20010904//EN"
 "http://www.w3.org/TR/2001/REC-SVG-20010904/DTD/svg10.dtd">
<svg version="1.0" xmlns="http://www.w3.org/2000/svg"
 width="900.000000pt" height="520.000000pt" viewBox="0 0 900.000000 520.000000"
 preserveAspectRatio="xMidYMid meet">

<g transform="translate(0.000000,520.000000) scale(0.100000,-0.100000)"
fill="#000000" stroke="none">
<path d="M2500 5187 c-44 -22 -50 -49 -50 -238 0 -241 8 -259 114 -259 l56 0
0 -494 0 -494 -217 -187 c-241 -208 -246 -213 -273 -270 -37 -77 -21 -156 43
-212 52 -46 91 -53 280 -53 l167 0 0 -1195 0 -1195 -58 0 c-68 0 -97 -20 -107
-73 -4 -18 -5 -113 -3 -211 l3 -178 28 -24 28 -24 1989 0 1989 0 28 24 28 24
0 212 0 212 -28 24 c-22 19 -39 24 -83 24 l-54 0 0 1195 0 1195 183 0 c155 0
188 3 223 19 102 46 136 180 68 271 -16 21 -366 337 -779 702 -412 365 -865
766 -1005 891 -213 190 -268 234 -335 267 -160 80 -332 76 -493 -10 -53 -28
-134 -99 -614 -537 l-148 -135 0 116 0 116 60 0 c106 0 113 20 108 283 -3 168
-4 178 -26 199 l-23 23 -537 2 c-418 2 -542 0 -562 -10z m978 -244 l3 -83 -44
0 c-56 0 -105 -17 -117 -40 -6 -11 -10 -139 -10 -309 l0 -289 26 -31 c31 -38
69 -41 110 -9 16 13 187 167 379 343 472 432 475 434 515 455 52 26 144 43
200 35 65 -9 154 -53 215 -106 27 -24 329 -292 670 -594 341 -303 772 -685
957 -849 186 -165 335 -303 332 -308 -3 -4 -106 -8 -228 -8 -211 0 -225 -1
-250 -21 l-26 -20 0 -1319 c0 -1518 -12 -1361 104 -1368 l66 -4 0 -84 0 -84
-1880 0 -1880 0 0 84 0 84 66 4 c116 7 104 -150 104 1368 l0 1319 -26 20 c-25
20 -39 21 -250 21 -122 0 -225 4 -228 9 -9 14 14 36 244 231 118 100 225 194
237 209 l23 26 0 588 c0 365 -4 595 -10 607 -12 23 -61 40 -116 40 l-44 0 0
78 c0 43 3 82 7 85 3 4 196 6 427 5 l421 -3 3 -82z"/>
<path d="M4347 3900 c-360 -61 -657 -339 -754 -708 -24 -90 -26 -117 -31 -369
l-4 -273 -27 0 c-37 0 -121 -42 -153 -76 -15 -16 -36 -49 -47 -74 -20 -44 -21
-63 -21 -700 l0 -655 24 -50 c28 -60 66 -97 126 -124 44 -20 61 -21 1040 -21
l995 0 50 24 c61 28 120 91 134 143 7 25 11 260 11 688 0 632 -1 651 -21 695
-25 55 -62 95 -114 123 -40 22 -46 22 -760 27 l-720 5 0 250 c1 217 3 257 19
305 57 168 198 282 368 296 127 11 233 -29 328 -125 80 -80 117 -159 134 -293
15 -113 30 -149 83 -200 58 -56 163 -76 259 -49 58 16 128 81 151 139 23 61
23 189 -1 296 -83 369 -373 650 -744 722 -79 15 -246 17 -325 4z m259 -151
c339 -47 611 -324 654 -667 17 -129 -4 -174 -79 -176 -58 -1 -77 21 -85 102
-17 166 -73 289 -181 397 -87 87 -157 129 -259 155 -314 80 -625 -96 -729
-413 -18 -54 -21 -95 -25 -330 l-4 -268 -87 3 -86 3 1 250 c0 277 10 350 64
475 140 331 466 518 816 469z m889 -1394 l25 -24 0 -631 0 -631 -25 -24 -24
-25 -971 0 -971 0 -24 25 -25 24 0 631 0 631 25 24 24 25 971 0 971 0 24 -25z"/>
<path d="M4417 2200 c-96 -24 -178 -96 -223 -195 -23 -49 -28 -74 -28 -137 0
-69 4 -85 37 -150 l36 -73 3 -165 c4 -176 10 -201 60 -247 38 -35 73 -43 198
-43 125 0 160 8 198 43 50 46 56 71 62 257 5 169 6 176 32 215 54 80 62 203
20 298 -28 64 -104 142 -167 172 -60 28 -168 40 -228 25z m148 -176 c18 -8 45
-32 59 -52 50 -72 47 -145 -9 -212 l-35 -42 0 -179 0 -179 -84 0 -85 0 -3 178
-3 177 -33 46 c-54 74 -55 160 -5 220 48 57 131 75 198 43z"/>
</g>
</svg>
