<?xml version="1.0" standalone="no"?>
<!DOCTYPE svg PUBLIC "-//W3C//DTD SVG 20010904//EN"
 "http://www.w3.org/TR/2001/REC-SVG-20010904/DTD/svg10.dtd">
<svg version="1.0" xmlns="http://www.w3.org/2000/svg"
 width="900.000000pt" height="520.000000pt" viewBox="0 0 900.000000 520.000000"
 preserveAspectRatio="xMidYMid meet">

<g transform="translate(0.000000,520.000000) scale(0.100000,-0.100000)"
fill="#000000" stroke="none">
<path d="M3405 3750 l-1450 -1451 57 -52 c31 -29 331 -306 667 -617 336 -311
615 -566 619 -568 10 -3 2792 2781 2791 2793 -1 6 -263 294 -583 640 -320 347
-597 647 -616 668 l-35 38 -1450 -1451z"/>
<path d="M6235 3721 c-16 -10 -657 -646 -1422 -1413 -1384 -1384 -1393 -1394
-1393 -1433 0 -38 6 -46 109 -147 117 -115 171 -149 269 -169 49 -10 77 -11
132 -1 130 22 143 33 541 428 337 335 370 366 433 394 98 45 205 44 282 -2 41
-24 59 -51 394 -586 146 -233 285 -447 310 -477 188 -226 505 -296 773 -173
415 191 511 737 186 1058 -53 52 -162 125 -553 370 -268 168 -502 320 -521
338 -69 67 -81 180 -34 308 20 55 48 85 399 439 208 209 389 398 402 420 70
114 78 260 19 380 -51 103 -232 285 -283 285 -7 0 -26 -9 -43 -19z m-321 -772
c52 -24 50 -107 -3 -129 -83 -34 -141 87 -61 127 31 16 33 16 64 2z m-1622
-1656 c25 -23 24 -77 -4 -103 -63 -58 -152 26 -102 98 19 27 78 30 106 5z
m1950 -205 c306 -193 337 -218 359 -300 36 -137 -83 -278 -226 -266 -37 3 -69
14 -101 34 -41 26 -67 62 -232 323 -193 306 -204 330 -167 371 37 40 63 29
367 -162z"/>
</g>
</svg>
