<?xml version="1.0" encoding="utf-8"?>
<!DOCTYPE svg PUBLIC "-//W3C//DTD SVG 20010904//EN" "http://www.w3.org/TR/2001/REC-SVG-20010904/DTD/svg10.dtd">
<svg version="1.0" xmlns="http://www.w3.org/2000/svg" width="900pt" height="520pt" viewBox="0 0 900 520" style="" preserveAspectRatio="xMidYMid meet">
<g fill="#000000FF" stroke="#000000FF">
<path d="M 390.361 90.961 C 354.534 126.732 324.947 156.000 324.611 156.000 C 324.275 156.000 324.000 143.870 324.000 129.044 L 324.000 102.088 331.250 101.794 L 338.500 101.500 338.800 95.750 L 339.100 90.000 291.550 90.000 L 244.000 90.000 244.000 96.000 L 244.000 102.000 251.500 102.000 L 259.000 102.000 259.000 161.821 L 259.000 221.642 235.250 245.571 L 211.500 269.500 235.000 270.000 L 258.500 270.500 258.755 377.750 L 259.009 485.000 454.000 485.000 L 648.991 485.000 649.246 372.750 L 649.500 260.500 668.738 260.000 L 687.976 259.500 680.238 253.580 C 671.714 247.058 599.455 193.480 551.393 158.045 C 542.102 151.195 524.150 137.893 511.500 128.486 C 498.850 119.078 483.602 107.808 477.616 103.441 C 471.629 99.073 464.323 93.568 461.380 91.207 L 456.029 86.914 455.764 56.417 L 455.500 25.921 390.361 90.961 M 432.000 206.006 L 432.000 332.013 356.750 331.756 L 281.500 331.500 281.241 280.512 L 280.981 229.524 355.738 154.762 C 396.854 113.643 430.834 80.000 431.247 80.000 C 431.661 80.000 432.000 136.703 432.000 206.006 M 627.000 397.976 L 627.000 475.952 590.372 476.226 C 562.315 476.436 553.635 476.215 553.278 475.283 C 552.867 474.210 567.312 429.057 568.885 426.500 C 569.223 425.950 569.500 424.600 569.500 423.500 C 569.500 422.209 570.120 421.549 571.250 421.639 C 572.537 421.741 573.000 421.029 573.000 418.948 C 573.000 417.391 573.408 415.866 573.906 415.558 C 574.404 415.250 574.584 414.125 574.305 413.057 C 573.609 410.398 580.939 386.443 583.186 384.031 C 585.816 381.208 585.453 379.185 582.250 378.816 C 579.703 378.523 579.447 378.074 578.783 372.729 C 577.609 363.274 573.400 358.346 560.500 351.328 C 557.769 349.842 556.589 348.572 556.780 347.326 C 556.934 346.322 557.306 343.925 557.606 342.000 C 558.323 337.405 556.395 334.888 551.991 334.670 C 549.010 334.522 548.349 334.949 546.834 338.000 C 544.382 342.938 544.481 347.652 547.065 349.035 C 548.799 349.963 548.922 350.388 547.837 351.696 C 546.763 352.991 545.047 353.140 537.633 352.580 C 527.919 351.847 524.053 350.385 521.295 346.405 C 520.308 344.981 518.276 342.395 516.779 340.658 C 514.317 337.800 514.056 337.702 514.029 339.628 C 513.931 346.762 522.302 356.552 533.000 361.812 C 539.424 364.971 540.833 366.146 542.823 370.000 C 544.890 374.003 545.079 375.384 544.533 382.500 C 544.196 386.900 543.462 392.300 542.904 394.500 C 542.001 398.054 541.021 418.525 541.006 434.152 C 541.000 439.531 540.855 439.855 538.000 440.850 C 535.019 441.889 533.860 443.986 536.250 444.015 C 540.506 444.067 540.246 445.623 533.427 460.869 L 526.660 476.000 490.987 476.000 L 455.314 476.000 454.657 459.340 C 453.820 438.107 453.812 332.206 454.648 325.250 L 455.279 320.000 541.139 320.000 L 627.000 320.000 627.000 397.976 M 459.316 119.157 C 460.517 119.793 467.575 124.825 475.000 130.337 C 493.629 144.169 510.188 156.407 518.500 162.487 C 522.350 165.303 533.959 173.883 544.298 181.554 C 554.638 189.224 565.291 197.075 567.972 199.000 C 583.084 209.850 625.612 241.563 626.243 242.453 C 626.651 243.029 626.876 257.900 626.743 275.500 L 626.500 307.500 540.903 307.756 L 455.306 308.011 454.658 296.756 C 453.811 282.068 453.813 179.997 454.661 145.162 C 455.027 130.107 455.725 118.000 456.226 118.000 C 456.724 118.000 458.114 118.521 459.316 119.157 M 432.000 410.013 L 432.000 476.000 356.500 476.000 L 281.000 476.000 281.000 410.700 C 281.000 370.802 281.369 345.030 281.950 344.450 C 282.537 343.862 311.327 343.600 357.450 343.763 L 432.000 344.025 432.000 410.013 M 301.000 141.230 L 301.000 180.460 292.271 189.230 C 287.470 194.054 282.970 198.000 282.271 198.000 C 281.261 198.000 281.000 188.153 281.000 150.000 L 281.000 102.000 291.000 102.000 L 301.000 102.000 301.000 141.230 M 547.785 446.741 C 549.278 447.698 551.620 449.498 552.990 450.741 C 554.359 451.983 556.047 453.000 556.740 453.000 C 558.487 453.000 558.324 454.938 556.519 455.631 C 555.669 455.957 554.518 458.714 553.819 462.100 C 553.148 465.345 552.191 468.000 551.692 468.000 C 550.176 468.000 537.999 457.911 538.010 456.664 C 538.028 454.502 542.899 445.000 543.989 445.000 C 544.584 445.000 546.292 445.783 547.785 446.741 M 579.941 381.750 C 579.908 382.713 578.895 386.166 577.691 389.425 C 575.380 395.674 573.045 397.839 572.937 393.833 L 572.873 391.500 571.941 393.824 C 571.329 395.351 571.389 396.859 572.117 398.219 C 574.213 402.135 571.383 413.012 568.275 412.985 C 563.883 412.947 563.482 411.644 565.385 403.575 C 566.365 399.417 567.579 395.760 568.084 395.448 C 568.588 395.137 569.006 392.771 569.014 390.191 C 569.039 381.405 569.840 380.363 576.750 380.116 C 579.243 380.027 579.986 380.408 579.941 381.750 M 545.223 467.924 C 553.156 475.411 552.557 476.500 540.500 476.500 C 530.165 476.500 528.871 475.614 531.388 470.260 C 534.141 464.406 535.920 462.000 537.496 462.000 C 538.294 462.000 541.771 464.666 545.223 467.924 "/></g>
<g fill="#000000FF" stroke="#000000FF">
<path d="M 292.474 364.395 C 290.495 365.843 290.887 366.218 296.154 367.914 C 298.478 368.663 302.012 371.458 305.868 375.598 C 311.117 381.232 311.852 382.490 311.353 384.986 C 310.903 387.237 311.360 388.451 313.447 390.538 C 315.886 392.977 316.061 393.665 315.463 398.451 C 314.697 404.584 314.660 404.646 309.660 408.375 L 305.820 411.239 301.327 406.870 C 296.548 402.221 292.988 396.314 293.722 394.250 C 293.984 393.514 293.330 393.000 292.133 393.000 C 291.015 393.000 289.641 392.213 289.080 391.250 C 288.247 389.820 288.058 390.141 288.044 393.000 C 288.023 397.480 288.996 401.121 290.041 400.474 C 290.489 400.198 293.391 403.862 296.491 408.618 L 302.127 417.264 308.540 416.749 L 314.953 416.234 315.569 419.517 C 316.712 425.610 316.056 426.462 309.987 426.768 C 302.975 427.121 295.740 428.812 294.779 430.324 C 292.664 433.649 295.059 439.846 303.505 452.901 C 305.977 456.723 308.000 460.326 308.000 460.908 C 308.000 461.490 305.733 463.115 302.963 464.519 C 296.357 467.866 297.304 469.462 305.387 468.604 C 313.326 467.761 315.809 467.396 319.727 466.499 C 322.651 465.829 323.122 466.060 324.727 468.956 C 326.383 471.941 326.797 472.125 331.000 471.739 C 333.475 471.511 338.359 469.902 341.853 468.162 C 345.347 466.423 348.764 465.000 349.448 465.000 C 352.002 465.000 354.333 461.021 354.333 456.661 C 354.333 450.365 353.336 449.323 350.140 452.275 C 346.803 455.357 336.289 460.622 335.348 459.682 C 334.959 459.292 335.509 456.893 336.570 454.350 C 338.310 450.180 341.558 447.314 346.356 445.715 C 346.884 445.539 346.578 443.236 345.656 440.451 C 344.755 437.728 343.713 433.253 343.340 430.507 C 342.967 427.762 342.475 426.074 342.248 426.757 C 340.826 431.021 337.099 422.218 334.538 408.551 C 332.649 398.468 330.837 393.519 327.883 390.376 C 326.095 388.472 325.989 387.753 326.965 384.129 C 327.880 380.733 327.791 379.610 326.445 377.556 C 324.378 374.401 322.123 373.709 316.607 374.536 C 313.082 375.065 311.613 374.796 309.344 373.204 C 296.809 364.414 294.266 363.085 292.474 364.395 M 315.630 441.495 C 319.678 442.123 319.772 442.229 320.354 446.818 C 322.216 461.503 322.301 465.000 320.796 465.000 C 319.897 465.000 318.275 462.349 316.664 458.250 C 315.206 454.538 312.447 449.300 310.533 446.611 C 307.019 441.675 306.778 439.528 309.834 440.386 C 310.750 440.643 313.359 441.142 315.630 441.495 "/></g>
<g fill="#000000FF" stroke="#000000FF">
<path d="M 526.441 184.418 C 525.374 185.198 523.806 188.236 522.957 191.168 L 521.414 196.500 516.607 197.057 C 510.721 197.739 509.193 199.493 504.905 210.492 C 503.191 214.887 500.764 220.512 499.511 222.992 C 494.807 232.300 493.679 240.179 491.011 282.362 C 490.522 290.095 490.514 297.221 490.993 298.480 C 491.465 299.722 493.070 301.696 494.560 302.869 C 499.563 306.804 504.039 304.799 499.954 300.451 C 497.866 298.229 497.743 297.427 498.295 289.616 C 499.180 277.064 506.917 256.139 510.260 257.253 C 512.954 258.151 518.299 272.176 522.134 288.412 C 523.993 296.283 524.791 298.156 526.457 298.552 C 529.876 299.365 541.040 299.745 541.462 299.062 C 541.680 298.709 539.894 297.379 537.493 296.106 C 530.773 292.541 529.741 289.438 530.548 275.225 C 531.285 262.247 531.143 261.652 523.501 245.816 L 519.793 238.133 521.978 231.566 C 523.180 227.955 524.528 225.000 524.973 225.000 C 525.418 225.000 526.503 226.800 527.383 229.000 C 528.264 231.200 529.472 233.000 530.068 233.000 C 532.805 233.000 548.705 225.289 550.628 223.029 L 552.781 220.500 550.140 220.825 C 548.688 221.004 546.084 222.229 544.354 223.547 C 540.570 226.429 533.049 228.405 532.508 226.659 C 530.711 220.864 531.300 218.679 535.829 214.340 C 540.138 210.211 540.652 209.998 546.429 209.958 L 552.500 209.916 549.000 208.000 C 544.543 205.560 541.494 205.520 538.154 207.858 C 531.642 212.417 531.325 212.411 528.548 207.672 C 525.368 202.246 525.378 202.000 528.766 202.000 C 530.980 202.000 532.182 201.008 534.786 197.029 C 539.472 189.872 539.487 189.635 535.515 186.148 C 531.575 182.688 529.382 182.270 526.441 184.418 "/></g>
<g fill="#000000FF" stroke="#000000FF">
<path d="M 522.250 50.115 C 521.563 50.822 521.000 52.158 521.000 53.085 C 521.000 54.012 520.377 56.253 519.615 58.065 C 517.851 62.259 519.240 66.761 522.704 68.078 C 524.056 68.592 525.013 69.347 524.831 69.756 C 524.649 70.165 520.816 73.988 516.313 78.250 C 509.421 84.775 507.592 86.000 504.745 86.000 C 500.387 86.000 491.466 83.391 487.032 80.821 C 484.748 79.496 483.435 79.195 483.187 79.938 C 482.942 80.674 482.029 80.446 480.564 79.283 L 478.317 77.500 479.628 80.791 C 480.651 83.362 482.203 84.647 486.719 86.661 C 502.005 93.479 511.181 94.731 518.500 91.000 C 520.658 89.900 522.801 89.000 523.262 89.000 C 524.693 89.000 527.128 96.040 526.806 99.245 L 526.500 102.288 516.792 102.086 C 501.967 101.778 499.143 104.749 507.650 111.700 C 510.208 113.790 514.418 117.342 517.006 119.592 C 519.594 121.843 522.789 124.454 524.106 125.394 L 526.500 127.104 524.209 128.995 C 521.969 130.845 521.962 130.909 523.887 131.940 C 526.018 133.080 528.100 132.573 532.000 129.961 C 533.375 129.040 535.765 127.519 537.311 126.580 L 540.123 124.873 538.021 121.311 C 535.752 117.465 536.075 115.937 538.798 117.628 C 542.348 119.832 543.017 123.081 541.455 130.543 C 540.655 134.369 540.000 137.837 540.000 138.250 C 540.000 139.213 545.164 139.201 546.566 138.235 C 548.010 137.239 551.024 126.226 550.340 124.444 C 550.039 123.659 550.784 121.336 551.997 119.281 C 553.639 116.498 554.159 114.135 554.035 110.022 C 553.943 106.985 553.865 104.050 553.861 103.500 C 553.858 102.950 555.455 98.675 557.410 94.000 C 559.366 89.325 560.960 84.825 560.951 84.000 C 560.929 81.770 559.210 79.934 551.744 74.166 C 544.576 68.628 541.339 67.000 537.494 67.000 C 534.227 67.000 533.644 65.589 535.459 62.079 C 537.579 57.980 537.396 53.668 535.010 51.509 C 532.509 49.246 523.999 48.316 522.250 50.115 "/></g>
<g fill="#000000FF" stroke="#000000FF">
<path d="M 413.763 177.754 C 412.915 178.714 410.587 182.772 408.588 186.772 C 406.265 191.419 402.389 196.743 397.849 201.522 C 390.974 208.760 388.000 210.577 388.000 207.539 C 388.000 206.735 386.988 205.131 385.750 203.974 C 383.663 202.022 383.627 201.799 385.250 200.885 C 387.887 199.402 387.367 198.282 383.750 197.657 C 381.963 197.348 379.082 196.804 377.349 196.448 C 374.880 195.942 373.719 196.281 371.986 198.014 C 369.267 200.733 369.694 204.810 373.516 212.623 C 375.928 217.552 376.030 218.319 375.019 223.895 C 373.787 230.690 373.457 256.011 374.347 275.500 C 374.573 280.450 374.222 288.873 373.566 294.218 C 372.910 299.564 372.497 304.514 372.647 305.218 C 372.798 305.923 373.362 308.276 373.900 310.447 C 374.438 312.618 374.515 315.045 374.070 315.839 C 372.641 318.394 374.155 321.039 378.240 323.123 C 382.039 325.061 392.008 326.534 391.993 325.155 C 391.989 324.795 390.482 323.475 388.642 322.223 L 385.298 319.947 384.686 309.223 C 384.179 300.325 384.401 297.394 385.991 292.000 C 387.045 288.425 388.392 281.557 388.984 276.737 C 390.269 266.265 391.377 263.000 393.642 263.000 C 394.572 263.000 395.086 262.752 394.783 262.450 C 394.481 262.147 394.626 260.235 395.106 258.200 C 395.664 255.835 395.568 252.843 394.841 249.909 C 394.215 247.384 394.004 244.121 394.371 242.659 C 395.095 239.774 398.000 238.963 398.000 241.646 C 398.000 242.916 398.542 242.707 400.377 240.727 C 402.052 238.920 402.607 237.393 402.255 235.554 L 401.757 232.946 398.321 234.973 C 393.081 238.065 392.658 237.737 393.403 231.151 C 393.790 227.738 393.625 224.143 393.008 222.521 C 392.023 219.929 392.338 219.346 397.667 213.913 C 405.392 206.038 410.000 198.568 410.000 193.919 C 410.000 190.261 412.065 187.304 413.850 188.407 C 414.365 188.726 415.068 187.864 415.412 186.493 C 416.512 182.110 417.820 183.807 418.543 190.553 L 419.244 197.105 422.372 196.447 C 426.801 195.516 427.295 194.729 426.122 190.479 C 424.901 186.058 421.409 182.000 418.826 182.000 C 417.822 182.000 417.000 181.325 417.000 180.500 C 417.000 179.620 417.930 178.987 419.250 178.970 C 421.259 178.942 421.313 178.830 419.750 177.920 C 418.788 177.359 418.000 177.203 418.000 177.573 C 418.000 177.942 417.393 177.741 416.652 177.126 C 415.629 176.277 414.932 176.429 413.763 177.754 "/></g>
</svg>
