<svg width="45" height="45" viewBox="0 0 45 45" fill="none" xmlns="http://www.w3.org/2000/svg">
<path fill-rule="evenodd" clip-rule="evenodd" d="M22.5 45C34.9264 45 45 34.9264 45 22.5C45 10.0736 34.9264 0 22.5 0C10.0736 0 0 10.0736 0 22.5C0 34.9264 10.0736 45 22.5 45ZM25.6673 13.0607C26.2531 12.4749 26.2531 11.5251 25.6673 10.9393C25.0816 10.3536 24.1318 10.3536 23.546 10.9393L13.293 21.1924C12.5119 21.9734 12.5119 23.2398 13.293 24.0208L23.546 34.2739C24.1318 34.8596 25.0816 34.8596 25.6673 34.2739C26.2531 33.6881 26.2531 32.7383 25.6673 32.1525L16.1214 22.6066L25.6673 13.0607Z" fill="#66CC99"/>
</svg>
